<svg xmlns="http://www.w3.org/2000/svg" width="197.325" height="69.759" viewBox="0 0 197.325 69.759">
  <g id="Group_3625" data-name="Group 3625" transform="translate(-14374.868 517)">
    <g id="Group_2829" data-name="Group 2829" transform="translate(14505.848 -517)">
      <path id="Path_2113" data-name="Path 2113" d="M-247.994-240.4a9.192,9.192,0,0,0-1.773-.768,10.561,10.561,0,0,0-4.876-.357,11.824,11.824,0,0,0-2.11.545l-.211.076a11.706,11.706,0,0,0-1.118.5q-.477.243-.953.529a23.13,23.13,0,0,0-2.125,1.462,45.708,45.708,0,0,1-.22-11.36.018.018,0,0,1,.027-.012c1.685,1.063,1.212,4.03.859,4.877-.006.017.019.028.031.015a5.247,5.247,0,0,0,.642-5.921c-.01-.015.012-.03.027-.019a4.882,4.882,0,0,1,.76.775,4.615,4.615,0,0,1,.953,2.521,7.345,7.345,0,0,1,0,1.139q-.009.134-.02.254c0,.012.01.016.02.013s.009,0,.012-.006a4.868,4.868,0,0,0-.012-4.436,5.547,5.547,0,0,0-.953-1.306c-.119-.121-.245-.243-.38-.362a.017.017,0,0,1,.015-.03c.127.032.247.067.365.109a3.579,3.579,0,0,1,.953.5,3.985,3.985,0,0,1,1.329,1.792,4.542,4.542,0,0,1,.308,1.64.017.017,0,0,0,.033,0,4.088,4.088,0,0,0-.341-3.351,3.952,3.952,0,0,0-1.329-1.285,4.276,4.276,0,0,0-.953-.427,2.962,2.962,0,0,0-.456-.1c-.019,0-.016-.03,0-.033.157-.015.308-.022.452-.025a4.658,4.658,0,0,1,.953.078,3.484,3.484,0,0,1,1.329.526,2.8,2.8,0,0,1,.891.955c.009.016.033.006.032-.011a2.688,2.688,0,0,0-.924-1.8,3.387,3.387,0,0,0-1.329-.7,3.788,3.788,0,0,0-.953-.137,3.006,3.006,0,0,0-1.19.213.016.016,0,0,1-.019-.024,2.245,2.245,0,0,1,1.209-.859,2.759,2.759,0,0,1,.953-.113,2.145,2.145,0,0,1,.781.184.017.017,0,0,0,.02-.025,2.987,2.987,0,0,0-.8-.65,2.54,2.54,0,0,0-.953-.311,2.388,2.388,0,0,0-2.295,1.139.015.015,0,0,1-.027,0c-.11-.2-.217-.418-.316-.648a7.6,7.6,0,0,1-.521-1.735.014.014,0,0,0-.028,0,7.638,7.638,0,0,1-.523,1.743,6.662,6.662,0,0,1-.315.641.015.015,0,0,1-.027,0,2.453,2.453,0,0,0-4.046-.178.016.016,0,0,0,.018.025,2.5,2.5,0,0,1,2.943.788.016.016,0,0,1-.02.024,3.5,3.5,0,0,0-3.777.937,2.672,2.672,0,0,0-.617,1.485c0,.017.022.027.03.011a2.677,2.677,0,0,1,.587-.72,3.853,3.853,0,0,1,3.04-.815c.019,0,.023.03,0,.033a4.024,4.024,0,0,0-3.042,2.439,4.377,4.377,0,0,0-.035,2.726.016.016,0,0,0,.032,0c0-.025,0-.05,0-.075a4.039,4.039,0,0,1,2.953-3.968.017.017,0,0,1,.014.03,4.949,4.949,0,0,0-1.345,6.1.017.017,0,0,0,.032-.007,5.017,5.017,0,0,1,1.693-4.688c.014-.01.036,0,.027.019a5.243,5.243,0,0,0,.642,5.921c.012.014.037,0,.03-.015-.351-.848-.825-3.814.86-4.877a.017.017,0,0,1,.025.012,45.661,45.661,0,0,1-.218,11.361,17.162,17.162,0,0,0-4.2-2.488c-.174-.066-.346-.126-.516-.181a11.069,11.069,0,0,0-3.963-.564,10.24,10.24,0,0,0-4.093,1.036c-.159.08-.293.153-.4.213a.04.04,0,0,0,.035.071c.122-.038.243-.072.364-.106a11.3,11.3,0,0,1,4.093-.4,12.171,12.171,0,0,1,3.963,1.07,20.912,20.912,0,0,1,4.718,3.076,51.646,51.646,0,0,1-4.718,4.042c-.051.029-.1.059-.151.083a1.1,1.1,0,0,0-1.14-.429,1.1,1.1,0,0,0-.828.818,1.073,1.073,0,0,0,.216.955,1.581,1.581,0,0,0,1.9.278c1.384-.582,3.107-2.418,5.224-4.358.176-.162.354-.323.537-.486.182.161.359.323.536.484.958.878,1.835,1.735,2.639,2.465.33.3.647.578.953.827a8.323,8.323,0,0,0,1.329.923,1.723,1.723,0,0,0,2.11-.046c.033-.028.066-.055.1-.088a1.239,1.239,0,0,0,.216-.955,1.081,1.081,0,0,0-.313-.542,1.1,1.1,0,0,0-.514-.276,1.1,1.1,0,0,0-1.139.429,3.844,3.844,0,0,1-.457-.279,15.486,15.486,0,0,1-1.329-1.074c-.3-.262-.618-.55-.953-.855-.653-.594-1.369-1.252-2.131-1.918a26.564,26.564,0,0,1,2.131-1.614c.312-.21.629-.414.953-.607.431-.258.875-.5,1.329-.713a13.409,13.409,0,0,1,2.11-.809,11.133,11.133,0,0,1,4.876-.3,12.048,12.048,0,0,1,1.738.409.04.04,0,0,0,.035-.071" transform="translate(295.381 278.027)" fill="#fff"/>
      <rect id="Rectangle_571" data-name="Rectangle 571" width="4.528" height="4.528" transform="translate(29.972 66.557) rotate(-45)" fill="#fff"/>
      <rect id="Rectangle_572" data-name="Rectangle 572" width="3.75" height="3.75" transform="translate(6.267 48.589) rotate(-71.995)" fill="#fff"/>
      <rect id="Rectangle_573" data-name="Rectangle 573" width="3.106" height="3.106" transform="matrix(0.156, -0.988, 0.988, 0.156, 17.317, 16.792)" fill="#fff"/>
      <rect id="Rectangle_574" data-name="Rectangle 574" width="3.106" height="3.106" transform="translate(54.93 34.879) rotate(-45)" fill="#fff"/>
      <rect id="Rectangle_575" data-name="Rectangle 575" width="3.106" height="3.106" transform="translate(53.865 28.157) rotate(-63.006)" fill="#fff"/>
      <rect id="Rectangle_576" data-name="Rectangle 576" width="3.106" height="3.106" transform="translate(17.318 52.967) rotate(-9.003)" fill="#fff"/>
      <rect id="Rectangle_577" data-name="Rectangle 577" width="3.106" height="3.106" transform="translate(45.475 14.21) rotate(-9.001)" fill="#fff"/>
      <rect id="Rectangle_578" data-name="Rectangle 578" width="3.106" height="3.105" transform="translate(23.682 56.982) rotate(-26.994)" fill="#fff"/>
      <rect id="Rectangle_579" data-name="Rectangle 579" width="3.106" height="3.106" transform="translate(30.976 10.926) rotate(-45)" fill="#fff"/>
      <rect id="Rectangle_580" data-name="Rectangle 580" width="2.572" height="2.572" transform="matrix(0.588, -0.809, 0.809, 0.588, 28.118, 14.592)" fill="#fff"/>
      <rect id="Rectangle_581" data-name="Rectangle 581" width="2.572" height="2.572" transform="translate(34.635 55.737) rotate(-54.006)" fill="#fff"/>
      <rect id="Rectangle_582" data-name="Rectangle 582" width="2.572" height="2.572" transform="translate(12.994 24.597) rotate(-17.991)" fill="#fff"/>
      <rect id="Rectangle_583" data-name="Rectangle 583" width="2.572" height="2.572" transform="translate(50.111 43.51) rotate(-17.991)" fill="#fff"/>
      <rect id="Rectangle_584" data-name="Rectangle 584" width="2.572" height="2.572" transform="translate(10.804 38.423) rotate(-54.006)" fill="#fff"/>
      <rect id="Rectangle_585" data-name="Rectangle 585" width="4.528" height="4.529" transform="translate(60.255 43.679) rotate(-26.999)" fill="#fff"/>
      <rect id="Rectangle_586" data-name="Rectangle 586" width="4.528" height="4.528" transform="matrix(0.988, -0.156, 0.156, 0.988, 11.962, 58.625)" fill="#fff"/>
      <rect id="Rectangle_587" data-name="Rectangle 587" width="4.528" height="4.528" transform="translate(49.203 7.369) rotate(-9.002)" fill="#fff"/>
      <rect id="Rectangle_588" data-name="Rectangle 588" width="3.75" height="3.75" transform="matrix(0.588, -0.809, 0.809, 0.588, 3.347, 39.604)" fill="#fff"/>
      <rect id="Rectangle_589" data-name="Rectangle 589" width="3.105" height="3.106" transform="translate(23.682 12.778) rotate(-63.006)" fill="#fff"/>
      <rect id="Rectangle_590" data-name="Rectangle 590" width="3.105" height="3.106" transform="translate(8.304 26.799) rotate(-26.994)" fill="#fff"/>
      <rect id="Rectangle_591" data-name="Rectangle 591" width="3.106" height="3.106" transform="translate(30.976 58.833) rotate(-45)" fill="#fff"/>
      <rect id="Rectangle_592" data-name="Rectangle 592" width="2.572" height="2.572" transform="translate(50.111 26.25) rotate(-72.009)" fill="#fff"/>
      <rect id="Rectangle_593" data-name="Rectangle 593" width="2.572" height="2.572" transform="translate(17.159 48.322)" fill="#fff"/>
      <rect id="Rectangle_594" data-name="Rectangle 594" width="4.528" height="4.529" transform="translate(0 24.101) rotate(-26.999)" fill="#fff"/>
      <rect id="Rectangle_595" data-name="Rectangle 595" width="4.529" height="4.528" transform="translate(0 45.658) rotate(-62.994)" fill="#fff"/>
      <rect id="Rectangle_596" data-name="Rectangle 596" width="3.75" height="3.75" transform="translate(18.303 11.539) rotate(-72.007)" fill="#fff"/>
      <rect id="Rectangle_597" data-name="Rectangle 597" width="3.751" height="3.751" transform="translate(43.315 60.627) rotate(-71.998)" fill="#fff"/>
      <rect id="Rectangle_598" data-name="Rectangle 598" width="3.751" height="3.75" transform="translate(55.353 46.182) rotate(-18.002)" fill="#fff"/>
      <rect id="Rectangle_599" data-name="Rectangle 599" width="3.75" height="3.75" transform="translate(57.761 38.774) rotate(-35.999)" fill="#fff"/>
      <rect id="Rectangle_600" data-name="Rectangle 600" width="3.751" height="3.75" transform="matrix(0.309, -0.951, 0.951, 0.309, 55.353, 23.578)" fill="#fff"/>
      <rect id="Rectangle_601" data-name="Rectangle 601" width="3.75" height="3.75" transform="translate(50.775 13.526)" fill="#fff"/>
      <rect id="Rectangle_602" data-name="Rectangle 602" width="3.75" height="3.751" transform="matrix(0.951, -0.309, 0.309, 0.951, 18.305, 58.219)" fill="#fff"/>
      <rect id="Rectangle_603" data-name="Rectangle 603" width="3.75" height="3.75" transform="translate(34.863 62.502) rotate(-54.009)" fill="#fff"/>
      <rect id="Rectangle_604" data-name="Rectangle 604" width="3.106" height="3.106" transform="translate(8.304 42.96) rotate(-63.006)" fill="#fff"/>
      <rect id="Rectangle_605" data-name="Rectangle 605" width="2.572" height="2.572" transform="translate(17.159 18.864)" fill="#fff"/>
      <rect id="Rectangle_606" data-name="Rectangle 606" width="2.572" height="2.572" transform="translate(10.804 31.336) rotate(-35.994)" fill="#fff"/>
      <rect id="Rectangle_607" data-name="Rectangle 607" width="2.572" height="2.572" transform="translate(41.008 15.495) rotate(-18.004)" fill="#fff"/>
      <rect id="Rectangle_608" data-name="Rectangle 608" width="2.572" height="2.572" transform="translate(34.635 14.022) rotate(-35.994)" fill="#fff"/>
      <rect id="Rectangle_609" data-name="Rectangle 609" width="2.13" height="2.129" transform="translate(46.607 44.64) rotate(-9)" fill="#fff"/>
      <rect id="Rectangle_610" data-name="Rectangle 610" width="2.13" height="2.13" transform="matrix(0.707, -0.707, 0.707, 0.707, 49.779, 34.88)" fill="#fff"/>
      <rect id="Rectangle_611" data-name="Rectangle 611" width="4.528" height="4.528" transform="translate(60.255 26.08) rotate(-62.994)" fill="#fff"/>
      <rect id="Rectangle_612" data-name="Rectangle 612" width="3.75" height="3.75" transform="translate(50.775 52.482)" fill="#fff"/>
      <rect id="Rectangle_613" data-name="Rectangle 613" width="3.75" height="3.751" transform="translate(6.267 21.17) rotate(-18.002)" fill="#fff"/>
      <rect id="Rectangle_614" data-name="Rectangle 614" width="3.75" height="3.75" transform="translate(43.317 9.132) rotate(-18.005)" fill="#fff"/>
      <rect id="Rectangle_615" data-name="Rectangle 615" width="3.75" height="3.75" transform="translate(26.244 8.087) rotate(-54.001)" fill="#fff"/>
      <rect id="Rectangle_616" data-name="Rectangle 616" width="3.105" height="3.106" transform="matrix(0.891, -0.454, 0.454, 0.891, 53.865, 41.602)" fill="#fff"/>
      <rect id="Rectangle_617" data-name="Rectangle 617" width="3.106" height="3.106" transform="translate(7.024 34.879) rotate(-45)" fill="#fff"/>
      <rect id="Rectangle_618" data-name="Rectangle 618" width="2.572" height="2.572" transform="matrix(0.809, -0.588, 0.588, 0.809, 51.948, 37.853)" fill="#fff"/>
      <rect id="Rectangle_619" data-name="Rectangle 619" width="2.572" height="2.572" transform="translate(22.096 52.613) rotate(-18.004)" fill="#fff"/>
      <rect id="Rectangle_620" data-name="Rectangle 620" width="2.13" height="2.13" transform="translate(31.667 52.991) rotate(-45)" fill="#fff"/>
      <rect id="Rectangle_621" data-name="Rectangle 621" width="2.129" height="2.13" transform="translate(21.309 21.111) rotate(-80.997)" fill="#fff"/>
      <rect id="Rectangle_622" data-name="Rectangle 622" width="2.13" height="2.13" transform="translate(14.515 40.942) rotate(-63.004)" fill="#fff"/>
      <rect id="Rectangle_623" data-name="Rectangle 623" width="3.75" height="3.75" transform="translate(11.821 13.526)" fill="#fff"/>
      <rect id="Rectangle_624" data-name="Rectangle 624" width="3.75" height="3.75" transform="translate(34.863 7.258) rotate(-35.999)" fill="#fff"/>
      <rect id="Rectangle_625" data-name="Rectangle 625" width="3.105" height="3.106" transform="translate(38.486 58.34) rotate(-63.017)" fill="#fff"/>
      <rect id="Rectangle_626" data-name="Rectangle 626" width="3.106" height="3.105" transform="translate(12.018 50.25) rotate(-80.999)" fill="#fff"/>
      <rect id="Rectangle_627" data-name="Rectangle 627" width="3.105" height="3.105" transform="translate(50.775 22.091) rotate(-80.997)" fill="#fff"/>
      <rect id="Rectangle_628" data-name="Rectangle 628" width="2.572" height="2.572" transform="translate(46.615 48.322)" fill="#fff"/>
      <rect id="Rectangle_629" data-name="Rectangle 629" width="2.572" height="2.572" transform="translate(51.948 31.906) rotate(-54.006)" fill="#fff"/>
      <rect id="Rectangle_630" data-name="Rectangle 630" width="2.572" height="2.572" transform="matrix(0.809, -0.588, 0.588, 0.809, 28.119, 55.167)" fill="#fff"/>
      <rect id="Rectangle_631" data-name="Rectangle 631" width="2.13" height="2.13" transform="translate(26.143 18.12) rotate(-63.004)" fill="#fff"/>
      <rect id="Rectangle_632" data-name="Rectangle 632" width="2.13" height="2.13" transform="translate(37.337 52.571) rotate(-63.004)" fill="#fff"/>
      <rect id="Rectangle_633" data-name="Rectangle 633" width="2.13" height="2.13" transform="matrix(0.156, -0.988, 0.988, 0.156, 42.601, 50.418)" fill="#fff"/>
      <rect id="Rectangle_634" data-name="Rectangle 634" width="2.13" height="2.13" transform="translate(14.515 28.817) rotate(-26.996)" fill="#fff"/>
      <rect id="Rectangle_635" data-name="Rectangle 635" width="2.13" height="2.13" transform="matrix(0.891, -0.454, 0.454, 0.891, 48.965, 40.011)" fill="#fff"/>
      <rect id="Rectangle_636" data-name="Rectangle 636" width="2.13" height="2.13" transform="translate(17.301 46.41) rotate(-80.981)" fill="#fff"/>
      <rect id="Rectangle_637" data-name="Rectangle 637" width="2.13" height="2.129" transform="translate(42.601 19.342) rotate(-9.019)" fill="#fff"/>
      <rect id="Rectangle_638" data-name="Rectangle 638" width="2.13" height="2.13" transform="translate(26.143 51.64) rotate(-27.011)" fill="#fff"/>
      <rect id="Rectangle_639" data-name="Rectangle 639" width="4.528" height="4.528" transform="translate(11.962 11.133) rotate(-80.998)" fill="#fff"/>
      <rect id="Rectangle_640" data-name="Rectangle 640" width="4.528" height="4.528" transform="matrix(0.156, -0.988, 0.988, 0.156, 49.203, 62.389)" fill="#fff"/>
      <rect id="Rectangle_641" data-name="Rectangle 641" width="4.528" height="4.528" transform="translate(29.972 3.202) rotate(-45)" fill="#fff"/>
      <rect id="Rectangle_642" data-name="Rectangle 642" width="3.75" height="3.75" transform="translate(3.347 30.156) rotate(-35.999)" fill="#fff"/>
      <rect id="Rectangle_643" data-name="Rectangle 643" width="3.75" height="3.75" transform="matrix(0.588, -0.809, 0.809, 0.588, 57.761, 30.986)" fill="#fff"/>
      <rect id="Rectangle_644" data-name="Rectangle 644" width="3.75" height="3.75" transform="translate(11.821 52.483)" fill="#fff"/>
      <rect id="Rectangle_645" data-name="Rectangle 645" width="3.75" height="3.75" transform="translate(26.244 61.672) rotate(-35.999)" fill="#fff"/>
      <rect id="Rectangle_646" data-name="Rectangle 646" width="3.106" height="3.106" transform="translate(45.475 55.549) rotate(-80.997)" fill="#fff"/>
      <rect id="Rectangle_647" data-name="Rectangle 647" width="3.106" height="3.105" transform="translate(12.018 19.51) rotate(-9.001)" fill="#fff"/>
      <rect id="Rectangle_648" data-name="Rectangle 648" width="3.106" height="3.106" transform="matrix(0.988, -0.156, 0.156, 0.988, 50.775, 47.668)" fill="#fff"/>
      <rect id="Rectangle_649" data-name="Rectangle 649" width="3.105" height="3.105" transform="translate(38.486 11.42) rotate(-26.993)" fill="#fff"/>
      <rect id="Rectangle_650" data-name="Rectangle 650" width="2.572" height="2.572" transform="translate(22.096 17.147) rotate(-72.009)" fill="#fff"/>
      <rect id="Rectangle_651" data-name="Rectangle 651" width="2.572" height="2.572" transform="translate(41.008 54.264) rotate(-72.009)" fill="#fff"/>
      <rect id="Rectangle_652" data-name="Rectangle 652" width="2.572" height="2.572" transform="translate(12.994 45.161) rotate(-71.996)" fill="#fff"/>
      <rect id="Rectangle_653" data-name="Rectangle 653" width="2.572" height="2.572" transform="translate(46.615 18.865)" fill="#fff"/>
      <rect id="Rectangle_654" data-name="Rectangle 654" width="2.13" height="2.13" transform="matrix(0.707, -0.707, 0.707, 0.707, 31.667, 16.768)" fill="#fff"/>
      <rect id="Rectangle_655" data-name="Rectangle 655" width="2.13" height="2.13" transform="translate(17.301 23.348) rotate(-9)" fill="#fff"/>
      <rect id="Rectangle_656" data-name="Rectangle 656" width="2.13" height="2.13" transform="translate(13.554 34.88) rotate(-45)" fill="#fff"/>
      <rect id="Rectangle_657" data-name="Rectangle 657" width="2.13" height="2.13" transform="matrix(0.454, -0.891, 0.891, 0.454, 48.965, 29.748)" fill="#fff"/>
      <rect id="Rectangle_658" data-name="Rectangle 658" width="2.13" height="2.13" transform="translate(46.607 25.118) rotate(-80.981)" fill="#fff"/>
      <rect id="Rectangle_659" data-name="Rectangle 659" width="2.13" height="2.13" transform="matrix(0.988, -0.156, 0.156, 0.988, 21.309, 48.647)" fill="#fff"/>
      <rect id="Rectangle_660" data-name="Rectangle 660" width="2.13" height="2.13" transform="translate(37.337 17.188) rotate(-26.996)" fill="#fff"/>
    </g>
    <path id="Path_2949" data-name="Path 2949" d="M-97.613-12.63h2.285V-1.749A6.477,6.477,0,0,1-95.7.488a4.987,4.987,0,0,1-1.086,1.767A4.921,4.921,0,0,1-98.525,3.41a6.179,6.179,0,0,1-2.327.413,6.853,6.853,0,0,1-2.458-.4,4.978,4.978,0,0,1-1.728-1.072A4.331,4.331,0,0,1-106.063.8a5.089,5.089,0,0,1-.339-1.846,5.28,5.28,0,0,1,.088-.936,7.432,7.432,0,0,1,.246-.976,8.842,8.842,0,0,1,.369-.949,6.292,6.292,0,0,1,.466-.848l1.837,1.02a3.337,3.337,0,0,0-.268.532,4.863,4.863,0,0,0-.2.624,5.714,5.714,0,0,0-.127.668,5.085,5.085,0,0,0-.044.655,3.408,3.408,0,0,0,.224,1.239,2.88,2.88,0,0,0,.655,1.011,3.08,3.08,0,0,0,1.068.681,3.979,3.979,0,0,0,1.463.25,3.194,3.194,0,0,0,1.31-.25,2.466,2.466,0,0,0,.94-.725,3.261,3.261,0,0,0,.571-1.156,5.652,5.652,0,0,0,.193-1.542ZM-86.8,0a5.5,5.5,0,0,1-2-.321,3.773,3.773,0,0,1-1.323-.831,3.082,3.082,0,0,1-.729-1.134,3.6,3.6,0,0,1-.224-1.222,4.015,4.015,0,0,1,.294-1.525,3.879,3.879,0,0,1,.835-1.274,4.006,4.006,0,0,1,1.305-.875,4.339,4.339,0,0,1,1.714-.325,4.921,4.921,0,0,1,.809.07,3.394,3.394,0,0,1,.826.25,3.153,3.153,0,0,1,.765.488,3.033,3.033,0,0,1,.637.778A4.218,4.218,0,0,1-83.454-4.8a6.272,6.272,0,0,1,.163,1.512v1.362H-79.7V0h-3.731a4.531,4.531,0,0,1-.927,1.5A6.2,6.2,0,0,1-85.8,2.646a8.329,8.329,0,0,1-1.846.782,11.779,11.779,0,0,1-2.14.413L-90,1.96A8.154,8.154,0,0,0-88.5,1.731a6.448,6.448,0,0,0,1.226-.439A4.5,4.5,0,0,0-86.345.7a2.791,2.791,0,0,0,.611-.7Zm1.239-1.925v-.844A6.114,6.114,0,0,0-85.7-4.241a2.622,2.622,0,0,0-.378-.888,1.192,1.192,0,0,0-.532-.435,1.686,1.686,0,0,0-.606-.114,1.556,1.556,0,0,0-.646.141,1.7,1.7,0,0,0-.549.4,1.984,1.984,0,0,0-.382.611,2.066,2.066,0,0,0-.145.787,1.748,1.748,0,0,0,.514,1.332,2.294,2.294,0,0,0,1.622.488Zm7.194-5.317q.615-.185,1.23-.321A6.448,6.448,0,0,1-75.746-7.7a3.789,3.789,0,0,1,1.354.224,3,3,0,0,1,1.011.624A3.124,3.124,0,0,1-72.7-5.9a4.534,4.534,0,0,1,.365,1.213q.079.545.163,1.042a8.856,8.856,0,0,0,.189.879,2.286,2.286,0,0,0,.25.611.419.419,0,0,0,.356.229h2.826V0H-79.7V-1.925h5.783a4.739,4.739,0,0,1-.22-.554,4.051,4.051,0,0,1-.158-.65q-.07-.492-.171-.984A3.408,3.408,0,0,0-74.77-5a1.809,1.809,0,0,0-.536-.637,1.447,1.447,0,0,0-.879-.246q-.185,0-.448.026t-.558.079a6.121,6.121,0,0,0-.6.141,4.648,4.648,0,0,0-.571.2ZM-68.552,0V-1.925h2.25V-7.207h2.285V0Zm3.744-10.512a1.09,1.09,0,0,1,.088-.439,1.143,1.143,0,0,1,.242-.356,1.143,1.143,0,0,1,.356-.242,1.09,1.09,0,0,1,.439-.088,1.09,1.09,0,0,1,.439.088,1.143,1.143,0,0,1,.356.242,1.143,1.143,0,0,1,.242.356,1.09,1.09,0,0,1,.088.439,1.09,1.09,0,0,1-.088.439,1.143,1.143,0,0,1-.242.356,1.143,1.143,0,0,1-.356.242,1.09,1.09,0,0,1-.439.088,1.09,1.09,0,0,1-.439-.088,1.143,1.143,0,0,1-.356-.242,1.143,1.143,0,0,1-.242-.356A1.09,1.09,0,0,1-64.807-10.512Zm-2.637,0a1.09,1.09,0,0,1,.088-.439,1.143,1.143,0,0,1,.242-.356,1.143,1.143,0,0,1,.356-.242,1.09,1.09,0,0,1,.439-.088,1.09,1.09,0,0,1,.439.088,1.143,1.143,0,0,1,.356.242,1.143,1.143,0,0,1,.242.356,1.09,1.09,0,0,1,.088.439,1.09,1.09,0,0,1-.088.439,1.143,1.143,0,0,1-.242.356,1.143,1.143,0,0,1-.356.242,1.09,1.09,0,0,1-.439.088,1.09,1.09,0,0,1-.439-.088,1.143,1.143,0,0,1-.356-.242,1.143,1.143,0,0,1-.242-.356A1.09,1.09,0,0,1-67.444-10.512ZM-49.215,0a3.157,3.157,0,0,0-1,.149A2.073,2.073,0,0,0-50.986.6a1.99,1.99,0,0,0-.5.756,2.953,2.953,0,0,0-.176,1.063,2.671,2.671,0,0,0,.154.905,1.99,1.99,0,0,0,.483.756,2.381,2.381,0,0,0,.835.519,3.384,3.384,0,0,0,1.208.193,7.044,7.044,0,0,0,.971-.079q.558-.079,1.1-.193V6.3q-.325.079-.6.141t-.532.1q-.259.04-.514.062t-.554.022a6.511,6.511,0,0,1-1.538-.167A4.74,4.74,0,0,1-51.848,6a3.819,3.819,0,0,1-.9-.686,3.765,3.765,0,0,1-.611-.839,3.769,3.769,0,0,1-.347-.932,4.312,4.312,0,0,1-.11-.958A5.129,5.129,0,0,1-53.474.655a3.814,3.814,0,0,1,.962-1.411,4.2,4.2,0,0,1,1.494-.87,5.954,5.954,0,0,1,1.942-.3h1.749a3.044,3.044,0,0,1-.224-.567,6.424,6.424,0,0,1-.18-.875q-.062-.413-.145-.857a2.894,2.894,0,0,0-.277-.813,1.684,1.684,0,0,0-.532-.606,1.557,1.557,0,0,0-.91-.237,4.3,4.3,0,0,0-.431.026q-.255.026-.545.079t-.6.136a4.642,4.642,0,0,0-.6.207V-7.242q.615-.176,1.235-.316A6.269,6.269,0,0,1-49.145-7.7a3.984,3.984,0,0,1,1.34.211,2.913,2.913,0,0,1,1.02.606,3.139,3.139,0,0,1,.694.954,4.22,4.22,0,0,1,.365,1.252q.079.519.163,1.015a5.327,5.327,0,0,0,.22.883,1.806,1.806,0,0,0,.347.62.7.7,0,0,0,.545.233h2.5V0ZM-49.5,2.26a.971.971,0,0,1,.079-.394,1.023,1.023,0,0,1,.218-.319,1.032,1.032,0,0,1,.321-.217.989.989,0,0,1,.4-.079.989.989,0,0,1,.4.079,1.031,1.031,0,0,1,.321.217,1.025,1.025,0,0,1,.218.319.971.971,0,0,1,.079.394.971.971,0,0,1-.079.394,1.025,1.025,0,0,1-.218.319,1.031,1.031,0,0,1-.321.217.989.989,0,0,1-.4.079.989.989,0,0,1-.4-.079,1.032,1.032,0,0,1-.321-.217,1.023,1.023,0,0,1-.218-.319A.972.972,0,0,1-49.5,2.26ZM-35.781.1a5.289,5.289,0,0,1-1.112-.105,4.623,4.623,0,0,1-.879-.277,3.616,3.616,0,0,1-.686-.387q-.294-.215-.532-.426A2.6,2.6,0,0,1-41.257,0h-.694c-.141,0-.343-.022-.343-.022l-.048-1.868a3.029,3.029,0,0,1,.391-.035h.422a1.281,1.281,0,0,0,.756-.229,1.3,1.3,0,0,0,.475-.712,9.612,9.612,0,0,1,.984-2.316,5.513,5.513,0,0,1,1.143-1.362,3.3,3.3,0,0,1,1.156-.642,3.751,3.751,0,0,1,1.024-.163,3.882,3.882,0,0,1,1.187.171,3.7,3.7,0,0,1,.962.461,3.4,3.4,0,0,1,.738.677,4.12,4.12,0,0,1,.519.822,4.16,4.16,0,0,1,.308.9,4.166,4.166,0,0,1,.1.892,3.724,3.724,0,0,1-.237,1.318,3.383,3.383,0,0,1-.694,1.125A3.353,3.353,0,0,1-34.238-.2,3.812,3.812,0,0,1-35.781.1ZM-34.3-3.454a2.179,2.179,0,0,0-.114-.664,2.27,2.27,0,0,0-.343-.664,1.988,1.988,0,0,0-.567-.514,1.463,1.463,0,0,0-.778-.207,1.293,1.293,0,0,0-.778.259,2.581,2.581,0,0,0-.633.681A4.962,4.962,0,0,0-38-3.595a7.039,7.039,0,0,0-.321,1.116,1.446,1.446,0,0,0,.352.237,3.836,3.836,0,0,0,.536.224,5.2,5.2,0,0,0,.62.167,3.037,3.037,0,0,0,.611.066,3.081,3.081,0,0,0,.782-.092,1.623,1.623,0,0,0,.6-.29,1.257,1.257,0,0,0,.382-.514A2.012,2.012,0,0,0-34.3-3.454Zm6.131-9.167h2.285V-3.4a3.307,3.307,0,0,0,.066.725,1.178,1.178,0,0,0,.193.453.665.665,0,0,0,.325.233,1.461,1.461,0,0,0,.461.066h.431V0H-25.4a3.371,3.371,0,0,1-1.261-.211A2.254,2.254,0,0,1-27.519-.8a2.378,2.378,0,0,1-.5-.923,4.229,4.229,0,0,1-.158-1.191Zm8.029,2.109a1.09,1.09,0,0,1,.088-.439,1.143,1.143,0,0,1,.242-.356,1.143,1.143,0,0,1,.356-.242,1.09,1.09,0,0,1,.439-.088,1.09,1.09,0,0,1,.439.088,1.143,1.143,0,0,1,.356.242,1.143,1.143,0,0,1,.242.356,1.09,1.09,0,0,1,.088.439,1.09,1.09,0,0,1-.088.439,1.143,1.143,0,0,1-.242.356,1.143,1.143,0,0,1-.356.242,1.09,1.09,0,0,1-.439.088,1.09,1.09,0,0,1-.439-.088,1.143,1.143,0,0,1-.356-.242,1.143,1.143,0,0,1-.242-.356A1.09,1.09,0,0,1-20.145-10.512ZM-24.412,0V-1.925h4.285V-7.207h2.285V0Zm10.257,1.679A5.207,5.207,0,0,0-12.916,1.3a1.989,1.989,0,0,0,.734-.567,1.91,1.91,0,0,0,.352-.8,5.544,5.544,0,0,0,.092-1.077V-7.207h2.285v5.282h1.767V0h-1.89a4.88,4.88,0,0,1-.461,1.459A3.311,3.311,0,0,1-10.885,2.5a4.391,4.391,0,0,1-1.261.7,8.732,8.732,0,0,1-1.709.422ZM-7.687,0V-1.925h4.25V-7.207h2.285V0Zm4.681,2.522a1.09,1.09,0,0,1,.088-.439,1.143,1.143,0,0,1,.242-.356,1.143,1.143,0,0,1,.356-.242A1.09,1.09,0,0,1-1.881,1.4a1.09,1.09,0,0,1,.439.088,1.143,1.143,0,0,1,.356.242,1.143,1.143,0,0,1,.242.356,1.09,1.09,0,0,1,.088.439,1.09,1.09,0,0,1-.088.439,1.143,1.143,0,0,1-.242.356,1.143,1.143,0,0,1-.356.242,1.09,1.09,0,0,1-.439.088A1.09,1.09,0,0,1-2.32,3.56a1.143,1.143,0,0,1-.356-.242,1.143,1.143,0,0,1-.242-.356A1.09,1.09,0,0,1-3.006,2.522ZM-100.332,16.5a3.661,3.661,0,0,1,.984-2.786,4.28,4.28,0,0,1,3.032-.932H-93.6V16.6a5.476,5.476,0,0,0,.044.782,1.18,1.18,0,0,0,.141.444.452.452,0,0,0,.259.2,1.421,1.421,0,0,0,.4.048h.976a1.669,1.669,0,0,1,.387.035.38.38,0,0,1,.207.114.364.364,0,0,1,.079.2,2.639,2.639,0,0,1,.013.286v.615a1.928,1.928,0,0,1-.026.36.354.354,0,0,1-.105.2.412.412,0,0,1-.211.092,2.161,2.161,0,0,1-.343.022h-1.477a3.244,3.244,0,0,1-.971-.149,2.317,2.317,0,0,1-.853-.479,2.4,2.4,0,0,1-.6-.848,3.133,3.133,0,0,1-.229-1.266V14.63a4.891,4.891,0,0,0-.9.075,1.481,1.481,0,0,0-.674.3,1.389,1.389,0,0,0-.42.624,3.158,3.158,0,0,0-.144,1.05v2.628a3.875,3.875,0,0,1-.391,1.683,4.46,4.46,0,0,1-1.135,1.463,5.771,5.771,0,0,1-1.816,1.033,7.084,7.084,0,0,1-2.436.391,9.078,9.078,0,0,1-2.26-.25,6.547,6.547,0,0,1-1.667-.659,4.684,4.684,0,0,1-1.161-.932,4.924,4.924,0,0,1-.73-1.063,4.475,4.475,0,0,1-.378-1.059,4.475,4.475,0,0,1-.11-.914,5.345,5.345,0,0,1,.1-1.006,6.8,6.8,0,0,1,.264-.98,5.908,5.908,0,0,1,.4-.9,5.489,5.489,0,0,1,.505-.765l1.8.976a3.291,3.291,0,0,0-.321.541,4.486,4.486,0,0,0-.246.637,5.345,5.345,0,0,0-.158.681,4.14,4.14,0,0,0-.057.672,3.528,3.528,0,0,0,.062.628,2.659,2.659,0,0,0,.224.677,2.774,2.774,0,0,0,.448.655,2.706,2.706,0,0,0,.734.558,4.319,4.319,0,0,0,1.072.387,6.591,6.591,0,0,0,1.477.145,4.841,4.841,0,0,0,1.468-.207,3.7,3.7,0,0,0,1.1-.545,2.4,2.4,0,0,0,.69-.778,1.883,1.883,0,0,0,.237-.905Zm-3.3,9.5a1.09,1.09,0,0,1,.088-.439,1.143,1.143,0,0,1,.242-.356,1.143,1.143,0,0,1,.356-.242,1.09,1.09,0,0,1,.439-.088,1.09,1.09,0,0,1,.439.088,1.143,1.143,0,0,1,.356.242,1.143,1.143,0,0,1,.242.356,1.09,1.09,0,0,1,.088.439,1.09,1.09,0,0,1-.088.439,1.143,1.143,0,0,1-.242.356,1.143,1.143,0,0,1-.356.242,1.09,1.09,0,0,1-.439.088,1.09,1.09,0,0,1-.439-.088,1.143,1.143,0,0,1-.356-.242,1.143,1.143,0,0,1-.242-.356A1.09,1.09,0,0,1-103.628,26Zm-2.637,0a1.09,1.09,0,0,1,.088-.439,1.143,1.143,0,0,1,.242-.356,1.143,1.143,0,0,1,.356-.242,1.09,1.09,0,0,1,.439-.088,1.09,1.09,0,0,1,.439.088,1.143,1.143,0,0,1,.356.242,1.143,1.143,0,0,1,.242.356,1.09,1.09,0,0,1,.088.439,1.09,1.09,0,0,1-.088.439,1.143,1.143,0,0,1-.242.356,1.143,1.143,0,0,1-.356.242,1.09,1.09,0,0,1-.439.088,1.09,1.09,0,0,1-.439-.088,1.143,1.143,0,0,1-.356-.242,1.143,1.143,0,0,1-.242-.356A1.09,1.09,0,0,1-106.265,26Zm15.8-13.245q.615-.185,1.23-.321a6.448,6.448,0,0,1,1.389-.136,3.789,3.789,0,0,1,1.354.224,3,3,0,0,1,1.011.624,3.124,3.124,0,0,1,.681.954,4.534,4.534,0,0,1,.365,1.213q.079.545.163,1.042a8.856,8.856,0,0,0,.189.879,2.286,2.286,0,0,0,.25.611.419.419,0,0,0,.356.229h.826a1.669,1.669,0,0,1,.387.035.38.38,0,0,1,.207.114.364.364,0,0,1,.079.2,2.639,2.639,0,0,1,.013.286v.615a1.928,1.928,0,0,1-.026.36.354.354,0,0,1-.105.2.412.412,0,0,1-.211.092,2.161,2.161,0,0,1-.343.022H-91.8a2.161,2.161,0,0,1-.343-.022.412.412,0,0,1-.211-.092.354.354,0,0,1-.105-.2,1.928,1.928,0,0,1-.026-.36v-.615a2.639,2.639,0,0,1,.013-.286.364.364,0,0,1,.079-.2.377.377,0,0,1,.2-.114,1.659,1.659,0,0,1,.391-.035h5.783a4.739,4.739,0,0,1-.22-.554,4.051,4.051,0,0,1-.158-.65q-.07-.492-.171-.984a3.408,3.408,0,0,0-.3-.883,1.809,1.809,0,0,0-.536-.637,1.447,1.447,0,0,0-.879-.246q-.185,0-.448.026t-.558.079a6.121,6.121,0,0,0-.6.141,4.648,4.648,0,0,0-.571.2Zm11.867,4.351a4.3,4.3,0,0,1-.026.475,3.025,3.025,0,0,0,1.034.378,7.825,7.825,0,0,0,1.052.114,13.026,13.026,0,0,1,.541-1.208,12.084,12.084,0,0,1,.775-1.314,10.972,10.972,0,0,1,1.008-1.274,7.74,7.74,0,0,1,1.232-1.09,6.12,6.12,0,0,1,1.452-.76,4.843,4.843,0,0,1,1.672-.286,4.147,4.147,0,0,1,1.778.352,3.4,3.4,0,0,1,1.237.967,4.058,4.058,0,0,1,.722,1.45,6.674,6.674,0,0,1,.233,1.8v1.362h1.564a1.669,1.669,0,0,1,.387.035.38.38,0,0,1,.207.114.364.364,0,0,1,.079.2,2.639,2.639,0,0,1,.013.286v.615a1.928,1.928,0,0,1-.026.36.354.354,0,0,1-.105.2.412.412,0,0,1-.211.092,2.161,2.161,0,0,1-.343.022H-75.629a9.016,9.016,0,0,1-2.053-.207,3.487,3.487,0,0,1-1.455-.69,2.251,2.251,0,0,1-.8.65,2.764,2.764,0,0,1-1.24.246h-1.485a2.161,2.161,0,0,1-.343-.022.412.412,0,0,1-.211-.092.354.354,0,0,1-.105-.2,1.928,1.928,0,0,1-.026-.36v-.615a2.639,2.639,0,0,1,.013-.286.364.364,0,0,1,.079-.2.377.377,0,0,1,.2-.114,1.659,1.659,0,0,1,.391-.035h.7a1.754,1.754,0,0,0,.5-.062.7.7,0,0,0,.334-.207.921.921,0,0,0,.189-.391,2.588,2.588,0,0,0,.062-.615V14.542h2.285Zm10.424-.211a4.818,4.818,0,0,0-.167-1.371,2.425,2.425,0,0,0-.448-.883,1.576,1.576,0,0,0-.668-.47,2.37,2.37,0,0,0-.817-.141,2.488,2.488,0,0,0-1.19.325,4.772,4.772,0,0,0-1.142.879,7.221,7.221,0,0,0-.988,1.288,8.283,8.283,0,0,0-.738,1.551h6.157Zm3.825,3.1a2.161,2.161,0,0,1-.343-.022.412.412,0,0,1-.211-.092.354.354,0,0,1-.105-.2,1.928,1.928,0,0,1-.026-.36v-.615a2.639,2.639,0,0,1,.013-.286.364.364,0,0,1,.079-.2.377.377,0,0,1,.2-.114,1.659,1.659,0,0,1,.391-.035h2.092V7.37h2.285V20ZM-57.63,7.379h2.285v12.63H-57.63Zm8.449,15.205A5.107,5.107,0,0,1-49,21.169a4.132,4.132,0,0,1,.523-1.151,4.012,4.012,0,0,1,.813-.9,4.815,4.815,0,0,1,1.055-.65,3.765,3.765,0,0,1-.562-1.2,4.4,4.4,0,0,1-.141-1.033,3.909,3.909,0,0,1,.286-1.485,3.783,3.783,0,0,1,.8-1.23A3.792,3.792,0,0,1-45,12.688a3.925,3.925,0,0,1,1.573-.308q.2,0,.483.022t.576.062q.294.04.571.1a3.054,3.054,0,0,1,.461.127l-.22,2a9.254,9.254,0,0,0-1.015-.25,4.833,4.833,0,0,0-.857-.083,2.313,2.313,0,0,0-.584.079,1.568,1.568,0,0,0-.554.268,1.431,1.431,0,0,0-.413.514,1.821,1.821,0,0,0-.163.817,2.252,2.252,0,0,0,.145.822,1.912,1.912,0,0,0,.409.646,1.869,1.869,0,0,0,.633.426,2.105,2.105,0,0,0,.817.154h2.5V20H-44.69a2.606,2.606,0,0,0-.936.163,2.078,2.078,0,0,0-.738.475,2.139,2.139,0,0,0-.483.76,2.839,2.839,0,0,0-.171,1.02,2.6,2.6,0,0,0,.149.866,2.08,2.08,0,0,0,.47.76,2.368,2.368,0,0,0,.826.541,3.242,3.242,0,0,0,1.226.207,7.044,7.044,0,0,0,.971-.079q.558-.079,1.112-.193V26.3q-.325.079-.6.141t-.523.1q-.25.04-.5.062t-.519.022a5.976,5.976,0,0,1-2.149-.347,4.345,4.345,0,0,1-1.485-.914,3.59,3.59,0,0,1-.866-1.3A4.1,4.1,0,0,1-49.181,22.584ZM-38.73,7.379h2.285V16.6a3.307,3.307,0,0,0,.066.725,1.178,1.178,0,0,0,.193.453.665.665,0,0,0,.325.233,1.461,1.461,0,0,0,.461.066h.431a1.669,1.669,0,0,1,.387.035.38.38,0,0,1,.207.114.364.364,0,0,1,.079.2,2.639,2.639,0,0,1,.013.286v.615a1.928,1.928,0,0,1-.026.36.354.354,0,0,1-.105.2.412.412,0,0,1-.211.092,2.161,2.161,0,0,1-.343.022h-.984a3.371,3.371,0,0,1-1.261-.211,2.254,2.254,0,0,1-.861-.593,2.378,2.378,0,0,1-.5-.923,4.229,4.229,0,0,1-.158-1.191ZM-34.949,20a2.161,2.161,0,0,1-.343-.022.412.412,0,0,1-.211-.092.354.354,0,0,1-.105-.2,1.928,1.928,0,0,1-.026-.36v-.615a2.639,2.639,0,0,1,.013-.286.364.364,0,0,1,.079-.2.377.377,0,0,1,.2-.114,1.659,1.659,0,0,1,.391-.035h1.872q.141-.36.33-.765t.426-.835v-9.1h2.285V13.6a6.732,6.732,0,0,1,1.666-1.055,4.846,4.846,0,0,1,1.991-.4,4.062,4.062,0,0,1,1.753.352,3.4,3.4,0,0,1,1.23.967,4.116,4.116,0,0,1,.725,1.45,6.567,6.567,0,0,1,.237,1.8v1.362h1.494a1.669,1.669,0,0,1,.387.035.38.38,0,0,1,.207.114.364.364,0,0,1,.079.2,2.64,2.64,0,0,1,.013.286v.615a1.928,1.928,0,0,1-.026.36.354.354,0,0,1-.105.2.412.412,0,0,1-.211.092,2.161,2.161,0,0,1-.343.022Zm10.257-3.1a4.814,4.814,0,0,0-.167-1.371,2.425,2.425,0,0,0-.448-.883,1.577,1.577,0,0,0-.668-.47,2.373,2.373,0,0,0-.817-.141,2.491,2.491,0,0,0-1.191.325,4.775,4.775,0,0,0-1.143.879,7.221,7.221,0,0,0-.989,1.288,8.279,8.279,0,0,0-.738,1.551h6.161Zm9.239-7.409a1.09,1.09,0,0,1,.088-.439,1.143,1.143,0,0,1,.242-.356,1.143,1.143,0,0,1,.356-.242,1.09,1.09,0,0,1,.439-.088,1.09,1.09,0,0,1,.439.088,1.143,1.143,0,0,1,.356.242,1.143,1.143,0,0,1,.242.356,1.09,1.09,0,0,1,.088.439,1.09,1.09,0,0,1-.088.439,1.143,1.143,0,0,1-.242.356,1.143,1.143,0,0,1-.356.242,1.09,1.09,0,0,1-.439.088,1.09,1.09,0,0,1-.439-.088,1.143,1.143,0,0,1-.356-.242,1.143,1.143,0,0,1-.242-.356A1.09,1.09,0,0,1-15.454,9.488Zm-2.637,0A1.09,1.09,0,0,1-18,9.049a1.143,1.143,0,0,1,.242-.356,1.143,1.143,0,0,1,.356-.242,1.09,1.09,0,0,1,.439-.088,1.09,1.09,0,0,1,.439.088,1.143,1.143,0,0,1,.356.242,1.143,1.143,0,0,1,.242.356,1.09,1.09,0,0,1,.088.439,1.09,1.09,0,0,1-.088.439,1.143,1.143,0,0,1-.242.356,1.143,1.143,0,0,1-.356.242,1.09,1.09,0,0,1-.439.088,1.09,1.09,0,0,1-.439-.088,1.143,1.143,0,0,1-.356-.242A1.143,1.143,0,0,1-18,9.928,1.09,1.09,0,0,1-18.09,9.488ZM-11.384,20q-.993,0-1.9-.079t-1.6-.2q-.5.07-1.094.123t-1.226.083q-.633.031-1.274.053T-19.725,20h-1.2a2.338,2.338,0,0,1-.352-.022.448.448,0,0,1-.224-.092.385.385,0,0,1-.119-.2,1.458,1.458,0,0,1-.035-.36v-.615a1.6,1.6,0,0,1,.022-.286.4.4,0,0,1,.092-.2.408.408,0,0,1,.215-.114,1.779,1.779,0,0,1,.4-.035h2.2a2.939,2.939,0,0,1-.308-.5,4.254,4.254,0,0,1-.22-.532,3.69,3.69,0,0,1-.132-.505,2.418,2.418,0,0,1-.044-.426,3.462,3.462,0,0,1,.29-1.4,3.484,3.484,0,0,1,.835-1.169,4.022,4.022,0,0,1,1.314-.8,4.826,4.826,0,0,1,1.736-.294,4.047,4.047,0,0,1,1.512.264,3.215,3.215,0,0,1,1.107.716,2.981,2.981,0,0,1,.677,1.059,3.609,3.609,0,0,1,.229,1.283,3.415,3.415,0,0,1-.057.606q-.057.316-.141.624t-.18.584q-.1.277-.185.488h2.127a1.79,1.79,0,0,1,.4.035.412.412,0,0,1,.22.114.4.4,0,0,1,.092.2,1.6,1.6,0,0,1,.022.286v.615a1.458,1.458,0,0,1-.035.36.385.385,0,0,1-.119.2.448.448,0,0,1-.224.092,2.338,2.338,0,0,1-.352.022Zm-5.862-4.078a2.117,2.117,0,0,0,.18.888,2.066,2.066,0,0,0,.488.677,2.186,2.186,0,0,0,.721.435,2.524,2.524,0,0,0,.888.154h.343q.088-.167.193-.4a4.786,4.786,0,0,0,.193-.492,4.5,4.5,0,0,0,.145-.554,2.951,2.951,0,0,0,.057-.571,2.3,2.3,0,0,0-.127-.8,1.711,1.711,0,0,0-.343-.58A1.437,1.437,0,0,0-15,14.335a1.426,1.426,0,0,0-.567-.119,1.921,1.921,0,0,0-.611.1,1.536,1.536,0,0,0-.541.312,1.558,1.558,0,0,0-.382.532A1.833,1.833,0,0,0-17.247,15.922Zm7.1,4.078a2.161,2.161,0,0,1-.343-.022.412.412,0,0,1-.211-.092.354.354,0,0,1-.105-.2,1.928,1.928,0,0,1-.026-.36v-.615a2.639,2.639,0,0,1,.013-.286.364.364,0,0,1,.079-.2.377.377,0,0,1,.2-.114,1.659,1.659,0,0,1,.391-.035h2.092V7.37h2.285V20ZM-3.428,7.379h2.285v12.63H-3.428Z" transform="translate(14485 -485)" fill="#fff"/>
  </g>
</svg>
