<svg xmlns="http://www.w3.org/2000/svg" width="54.396" height="50.279" viewBox="0 0 54.396 50.279">
  <path id="Path_2947" data-name="Path 2947" d="M26.953-119.141v20.41H8.105v-16.113q0-13.086,3.125-18.945a26.271,26.271,0,0,1,12.988-11.816l4.3,6.836a15.723,15.723,0,0,0-7.91,6.689q-2.539,4.443-2.832,12.939Zm30.273,0v20.41H38.379v-16.113q0-13.086,3.125-18.945a26.271,26.271,0,0,1,12.988-11.816l4.3,6.836a15.723,15.723,0,0,0-7.91,6.689q-2.539,4.443-2.832,12.939Z" transform="translate(61.001 -97.23) rotate(180)" fill="none" stroke="#6766cc" stroke-width="3"/>
</svg>
