<svg xmlns="http://www.w3.org/2000/svg" xmlns:xlink="http://www.w3.org/1999/xlink" width="95.582" height="64.174" viewBox="0 0 95.582 64.174">
  <defs>
    <clipPath id="clip-path">
      <path id="Path_2208" data-name="Path 2208" d="M3,395H97.085v5.182H3Zm0,0" transform="translate(-3 -395)" fill="#fff"/>
    </clipPath>
  </defs>
  <g id="surface1" transform="translate(-0.035 0.012)">
    <path id="Path_2114" data-name="Path 2114" d="M206.722,280.277q-.611.278-1.238.516.307.643.65,1.264.651-.314,1.286-.67Q207.053,280.845,206.722,280.277Zm0,0" transform="translate(-174.767 -238.43)" fill="#fff" fill-rule="evenodd"/>
    <path id="Path_2115" data-name="Path 2115" d="M6.365,137.229l-3.721-3s3.478-5.558,9.826-4.962c0,0,5.365.281,7.014,4.595,0,0,1.862,5.755-2.416,9.561,0,0-6.779,5.945-9.5,7.432l3.227-1.377h9.426v4.64H2.313v-4.386l9.934-8.012c2.1-1.692,3.651-5.094,1.087-7.189a3.045,3.045,0,0,0-2.522-.622C9.014,134.229,7.347,136.108,6.365,137.229Zm0,0" transform="translate(-1.937 -109.935)" fill="#fff" fill-rule="evenodd"/>
    <path id="Path_2116" data-name="Path 2116" d="M335.465,135.959l0-4.459H351.8v3.982l-6.139,6.014s5.136.515,6.385,5.322c1.408,5.417-3.39,9.975-9.124,9.568a11.757,11.757,0,0,1-8.8-4.285l3.4-3.346s2.525,3.287,6.164,2.818c0,0,3.182,0,3.342-2.8.21-3.685-4.167-3.821-6.981-3.484L339.228,142l7.865-7.866-3.111,1.82Zm0,0" transform="translate(-284.193 -111.872)" fill="#fff" fill-rule="evenodd"/>
    <path id="Path_2117" data-name="Path 2117" d="M481.032,127.641A12.755,12.755,0,1,1,468.2,140.4,12.819,12.819,0,0,1,481.032,127.641Zm0,4.866a7.905,7.905,0,1,1-7.384,7.888A7.663,7.663,0,0,1,481.032,132.507Zm0,0" transform="translate(-398.248 -108.589)" fill="#fff" fill-rule="evenodd"/>
    <path id="Path_2118" data-name="Path 2118" d="M229.131,131.263q.456-.445.947-.859-.454-.524-.947-1.017-.494.492-.947,1.017Q228.675,130.818,229.131,131.263Zm0,0" transform="translate(-194.076 -110.074)" fill="#fff" fill-rule="evenodd"/>
    <path id="Path_2119" data-name="Path 2119" d="M227.3,102.513q.625-.636,1.3-1.22-.623-.765-1.3-1.469-.681.705-1.3,1.469Q226.675,101.877,227.3,102.513Zm0,0" transform="translate(-192.216 -84.926)" fill="#fff" fill-rule="evenodd"/>
    <path id="Path_2120" data-name="Path 2120" d="M241.287,119.089q.607-.453,1.258-.863-.43-.686-.9-1.339c-.447.334-.879.683-1.293,1.049Q240.84,118.5,241.287,119.089Zm0,0" transform="translate(-204.427 -99.441)" fill="#fff" fill-rule="evenodd"/>
    <path id="Path_2121" data-name="Path 2121" d="M260.983,151.324c-.147-.335-.3-.666-.468-.991q.574-.211,1.163-.383.227.55.427,1.112Q261.538,151.174,260.983,151.324Zm0,0" transform="translate(-221.58 -127.566)" fill="#fff" fill-rule="evenodd"/>
    <path id="Path_2122" data-name="Path 2122" d="M249.6,155.763c-.17-.273-.347-.541-.533-.8.309-.151.623-.295.941-.428q.263.446.5.908Q250.043,155.587,249.6,155.763Zm0,0" transform="translate(-211.837 -131.463)" fill="#fff" fill-rule="evenodd"/>
    <path id="Path_2123" data-name="Path 2123" d="M252.775,135.471q-.336-.581-.708-1.139.623-.346,1.262-.653.348.634.659,1.292Q253.374,135.2,252.775,135.471Zm0,0" transform="translate(-214.392 -113.726)" fill="#fff" fill-rule="evenodd"/>
    <path id="Path_2124" data-name="Path 2124" d="M240.333,142.9q-.375-.463-.786-.9.5-.343,1.024-.659.392.5.746,1.032Q240.818,142.622,240.333,142.9Zm0,0" transform="translate(-203.743 -120.242)" fill="#fff" fill-rule="evenodd"/>
    <path id="Path_2125" data-name="Path 2125" d="M215.565,119.288q.445-.592.932-1.152-.62-.549-1.287-1.051-.469.651-.9,1.336Q214.96,118.833,215.565,119.288Zm0,0" transform="translate(-182.277 -99.61)" fill="#fff" fill-rule="evenodd"/>
    <path id="Path_2126" data-name="Path 2126" d="M229.131,283.93q.456.445.947.859-.454.524-.947,1.017-.494-.492-.947-1.017Q228.675,284.374,229.131,283.93Zm0,0" transform="translate(-194.076 -241.537)" fill="#fff" fill-rule="evenodd"/>
    <path id="Path_2127" data-name="Path 2127" d="M227.3,308.051q.625.636,1.3,1.22-.623.765-1.3,1.469-.681-.705-1.3-1.469Q226.675,308.687,227.3,308.051Zm0,0" transform="translate(-192.216 -262.056)" fill="#fff" fill-rule="evenodd"/>
    <path id="Path_2128" data-name="Path 2128" d="M241.287,294.246q.607.453,1.258.863-.43.686-.9,1.339c-.447-.334-.879-.683-1.293-1.05Q240.84,294.839,241.287,294.246Zm0,0" transform="translate(-204.427 -250.313)" fill="#fff" fill-rule="evenodd"/>
    <path id="Path_2129" data-name="Path 2129" d="M215.565,294.047q.445.592.932,1.152-.62.549-1.287,1.051-.469-.651-.9-1.336Q214.96,294.5,215.565,294.047Zm0,0" transform="translate(-182.277 -250.143)" fill="#fff" fill-rule="evenodd"/>
    <path id="Path_2130" data-name="Path 2130" d="M274.281,146.036q.628-.1,1.27-.151-.066-.69-.182-1.378-.687.115-1.361.279Q274.167,145.41,274.281,146.036Zm0,0" transform="translate(-233.057 -122.937)" fill="#fff" fill-rule="evenodd"/>
    <path id="Path_2131" data-name="Path 2131" d="M287.976,122.741q.878-.156,1.77-.237-.063-.984-.21-1.953-.963.179-1.915.439Q287.835,121.859,287.976,122.741Zm0,0" transform="translate(-244.637 -102.558)" fill="#fff" fill-rule="evenodd"/>
    <path id="Path_2132" data-name="Path 2132" d="M291.132,144.317q.758-.018,1.525.026.049-.808.043-1.613-.836.018-1.661.1Q291.113,143.574,291.132,144.317Zm0,0" transform="translate(-247.545 -121.425)" fill="#fff" fill-rule="evenodd"/>
    <path id="Path_2133" data-name="Path 2133" d="M291.82,163.08q.064-.668.083-1.338.708.08,1.407.2-.084.718-.212,1.434Q292.465,163.208,291.82,163.08Zm0,0" transform="translate(-248.21 -137.597)" fill="#fff" fill-rule="evenodd"/>
    <path id="Path_2134" data-name="Path 2134" d="M277.832,161.94c-.024-.4-.064-.793-.117-1.19q.611.014,1.216.058c.018.425.02.849.009,1.273Q278.389,161.995,277.832,161.94Zm0,0" transform="translate(-236.211 -136.753)" fill="#fff" fill-rule="evenodd"/>
    <path id="Path_2135" data-name="Path 2135" d="M265.125,162.629q-.13-.463-.289-.921c.34-.059.68-.11,1.023-.15q.129.5.226,1.011C265.765,162.579,265.444,162.6,265.125,162.629Zm0,0" transform="translate(-225.255 -137.441)" fill="#fff" fill-rule="evenodd"/>
    <path id="Path_2136" data-name="Path 2136" d="M269.12,128.246q.706-.224,1.426-.4-.185-.807-.439-1.6-.76.258-1.506.569Q268.891,127.525,269.12,128.246Zm0,0" transform="translate(-228.458 -107.402)" fill="#fff" fill-rule="evenodd"/>
    <path id="Path_2137" data-name="Path 2137" d="M186.224,270.383q.114.627.273,1.25-.674.163-1.362.278-.116-.687-.182-1.378Q185.595,270.481,186.224,270.383Zm0,0" transform="translate(-157.302 -230.013)" fill="#fff" fill-rule="evenodd"/>
    <path id="Path_2138" data-name="Path 2138" d="M185.5,256.359q.037.594.117,1.19-.611-.014-1.216-.058c-.018-.425-.02-.849-.009-1.273Q184.944,256.3,185.5,256.359Zm0,0" transform="translate(-156.819 -217.965)" fill="#fff" fill-rule="evenodd"/>
    <path id="Path_2139" data-name="Path 2139" d="M169.552,290.148q.139.881.355,1.751c-.634.174-1.272.32-1.915.44q-.146-.97-.211-1.954Q168.672,290.3,169.552,290.148Zm0,0" transform="translate(-142.695 -246.827)" fill="#fff" fill-rule="evenodd"/>
    <path id="Path_2140" data-name="Path 2140" d="M189.173,285.8q.231.722.523,1.433-.747.31-1.51.567-.255-.8-.444-1.6Q188.465,286.025,189.173,285.8Zm0,0" transform="translate(-159.675 -243.129)" fill="#fff" fill-rule="evenodd"/>
    <path id="Path_2141" data-name="Path 2141" d="M221.714,273.266c-.314.188-.634.366-.956.536q.346.5.726.987.5-.316.993-.658Q222.078,273.709,221.714,273.266Zm0,0" transform="translate(-187.76 -232.466)" fill="#fff" fill-rule="evenodd"/>
    <path id="Path_2142" data-name="Path 2142" d="M215.159,263.922q-.443.186-.9.346.247.454.519.894.473-.212.933-.45C215.517,264.453,215.335,264.19,215.159,263.922Zm0,0" transform="translate(-182.23 -224.517)" fill="#fff" fill-rule="evenodd"/>
    <path id="Path_2143" data-name="Path 2143" d="M200.92,268.336q-.573.159-1.162.278.212.572.452,1.131.611-.183,1.206-.407Q201.155,268.844,200.92,268.336Zm0,0" transform="translate(-169.896 -228.272)" fill="#fff" fill-rule="evenodd"/>
    <path id="Path_2144" data-name="Path 2144" d="M198.226,257.25c-.32.019-.643.028-.964.027q.081.51.193,1.016.516-.043,1.03-.116C198.388,257.871,198.3,257.562,198.226,257.25Zm0,0" transform="translate(-167.772 -218.842)" fill="#fff" fill-rule="evenodd"/>
    <path id="Path_2145" data-name="Path 2145" d="M169.029,271.639c.012.494.043.987.09,1.478q-.823.088-1.657.109-.005-.8.045-1.609Q168.273,271.659,169.029,271.639Zm0,0" transform="translate(-142.423 -231.063)" fill="#fff" fill-rule="evenodd"/>
    <path id="Path_2146" data-name="Path 2146" d="M302.313,183.186q.565.291,1.115.627.353-.6.664-1.221-.623-.312-1.265-.577Q302.59,182.613,302.313,183.186Zm0,0" transform="translate(-257.135 -154.843)" fill="#fff" fill-rule="evenodd"/>
    <path id="Path_2147" data-name="Path 2147" d="M277.234,175.021q.468.111.932.251c.046-.341.082-.684.108-1.028-.338-.072-.678-.134-1.02-.186Q277.259,174.542,277.234,175.021Zm0,0" transform="translate(-235.802 -148.074)" fill="#fff" fill-rule="evenodd"/>
    <path id="Path_2148" data-name="Path 2148" d="M290.137,178.176q.557.209,1.1.46.165-.587.3-1.18-.6-.212-1.215-.382Q290.247,177.626,290.137,178.176Zm0,0" transform="translate(-246.777 -150.64)" fill="#fff" fill-rule="evenodd"/>
    <path id="Path_2149" data-name="Path 2149" d="M325.258,173.17q.8.391,1.57.851.529-.833.981-1.7-.884-.423-1.806-.772Q325.664,172.375,325.258,173.17Zm0,0" transform="translate(-276.653 -145.938)" fill="#fff" fill-rule="evenodd"/>
    <path id="Path_2150" data-name="Path 2150" d="M315.926,190.924q.622.432,1.217.92.514-.624.984-1.278-.685-.478-1.4-.894Q316.345,190.312,315.926,190.924Zm0,0" transform="translate(-268.715 -161.356)" fill="#fff" fill-rule="evenodd"/>
    <path id="Path_2151" data-name="Path 2151" d="M308.164,167.106q.7.235,1.387.519.326-.761.589-1.553-.766-.239-1.552-.428Q308.4,166.389,308.164,167.106Zm0,0" transform="translate(-262.112 -140.917)" fill="#fff" fill-rule="evenodd"/>
    <path id="Path_2152" data-name="Path 2152" d="M157.491,231.224q-.277.572-.515,1.171-.641-.265-1.265-.577.312-.624.665-1.22Q156.926,230.932,157.491,231.224Zm0,0" transform="translate(-132.427 -196.17)" fill="#fff" fill-rule="evenodd"/>
    <path id="Path_2153" data-name="Path 2153" d="M174.677,207.941q-.308.371-.594.761-.361-.368-.7-.757.341-.391.7-.761Q174.368,207.573,174.677,207.941Zm0,0" transform="translate(-147.456 -176.252)" fill="#fff" fill-rule="evenodd"/>
    <path id="Path_2154" data-name="Path 2154" d="M165.259,218.79q-.32.5-.607,1.031-.486-.37-.949-.763.354-.53.743-1.034Q164.841,218.417,165.259,218.79Zm0,0" transform="translate(-139.226 -185.473)" fill="#fff" fill-rule="evenodd"/>
    <path id="Path_2155" data-name="Path 2155" d="M130.285,237.773q-.406.795-.745,1.624-.921-.348-1.806-.772.453-.869.981-1.7Q129.483,237.38,130.285,237.773Zm0,0" transform="translate(-108.628 -201.55)" fill="#fff" fill-rule="evenodd"/>
    <path id="Path_2156" data-name="Path 2156" d="M150.417,246.55q-.238.719-.421,1.466-.787-.189-1.555-.431.262-.794.586-1.558Q149.713,246.313,150.417,246.55Zm0,0" transform="translate(-126.243 -209.295)" fill="#fff" fill-rule="evenodd"/>
    <path id="Path_2157" data-name="Path 2157" d="M187.2,243.943q-.469-.111-.932-.251c-.046.341-.082.684-.107,1.028.338.072.678.134,1.019.186C187.176,244.583,187.183,244.263,187.2,243.943Zm0,0" transform="translate(-158.329 -207.308)" fill="#fff" fill-rule="evenodd"/>
    <path id="Path_2158" data-name="Path 2158" d="M169.539,252.972q-.657-.135-1.3-.312-.131.7-.219,1.4.711.13,1.433.216Q169.473,253.625,169.539,252.972Zm0,0" transform="translate(-142.894 -214.937)" fill="#fff" fill-rule="evenodd"/>
    <path id="Path_2159" data-name="Path 2159" d="M172.217,238.811q-.558-.209-1.1-.46-.165.587-.3,1.18.6.212,1.215.382Q172.107,239.36,172.217,238.811Zm0,0" transform="translate(-145.273 -202.766)" fill="#fff" fill-rule="evenodd"/>
    <path id="Path_2160" data-name="Path 2160" d="M176.6,227.109q-.405-.26-.8-.546-.235.461-.443.935.443.27.9.513C176.366,227.705,176.48,227.405,176.6,227.109Zm0,0" transform="translate(-149.144 -192.737)" fill="#fff" fill-rule="evenodd"/>
    <path id="Path_2161" data-name="Path 2161" d="M141.752,221.566q-.421.61-.8,1.248-.718-.413-1.4-.888.468-.651.984-1.273Q141.128,221.137,141.752,221.566Zm0,0" transform="translate(-118.68 -187.71)" fill="#fff" fill-rule="evenodd"/>
    <path id="Path_2162" data-name="Path 2162" d="M303,230.247q.285.569.531,1.164.638-.273,1.257-.594-.319-.619-.681-1.211Q303.566,229.948,303,230.247Zm0,0" transform="translate(-257.723 -195.326)" fill="#fff" fill-rule="evenodd"/>
    <path id="Path_2163" data-name="Path 2163" d="M295.074,196.525q.411.363.8.747.374-.484.718-.992-.454-.382-.929-.745Q295.385,196.043,295.074,196.525Zm0,0" transform="translate(-250.977 -166.344)" fill="#fff" fill-rule="evenodd"/>
    <path id="Path_2164" data-name="Path 2164" d="M288.27,207.2q.312.366.6.753.357-.373.692-.767-.345-.386-.713-.751Q288.573,206.823,288.27,207.2Zm0,0" transform="translate(-245.189 -175.611)" fill="#fff" fill-rule="evenodd"/>
    <path id="Path_2165" data-name="Path 2165" d="M305.836,207.058q.451.5.869,1.021.519-.489,1.005-1.005-.5-.523-1.03-1.02Q306.275,206.57,305.836,207.058Zm0,0" transform="translate(-260.132 -175.292)" fill="#fff" fill-rule="evenodd"/>
    <path id="Path_2166" data-name="Path 2166" d="M296.363,217.925q.326.5.62,1.022.48-.376.939-.775c-.24-.351-.494-.692-.756-1.024Q296.776,217.547,296.363,217.925Zm0,0" transform="translate(-252.074 -184.729)" fill="#fff" fill-rule="evenodd"/>
    <path id="Path_2167" data-name="Path 2167" d="M325.922,236.458q.417.789.766,1.614.917-.361,1.8-.8-.465-.863-1-1.689Q326.718,236.055,325.922,236.458Zm0,0" transform="translate(-277.218 -200.413)" fill="#fff" fill-rule="evenodd"/>
    <path id="Path_2168" data-name="Path 2168" d="M286.223,190.874q.416.24.821.506c.141-.314.274-.632.4-.954q-.454-.249-.923-.469C286.428,190.267,286.329,190.572,286.223,190.874Zm0,0" transform="translate(-243.448 -161.599)" fill="#fff" fill-rule="evenodd"/>
    <path id="Path_2169" data-name="Path 2169" d="M309.156,245.47q.248.717.44,1.461.785-.2,1.549-.452-.273-.79-.607-1.55Q309.857,245.225,309.156,245.47Zm0,0" transform="translate(-262.956 -208.361)" fill="#fff" fill-rule="evenodd"/>
    <path id="Path_2170" data-name="Path 2170" d="M316.238,220.407q.429.6.814,1.237.711-.423,1.392-.907-.478-.645-1-1.261Q316.856,219.969,316.238,220.407Zm0,0" transform="translate(-268.981 -186.71)" fill="#fff" fill-rule="evenodd"/>
    <path id="Path_2171" data-name="Path 2171" d="M157.561,184.116q-.562.3-1.107.642-.361-.592-.68-1.212.619-.319,1.257-.593Q157.276,183.547,157.561,184.116Zm0,0" transform="translate(-132.48 -155.641)" fill="#fff" fill-rule="evenodd"/>
    <path id="Path_2172" data-name="Path 2172" d="M130.108,174.418q-.8.4-1.559.872-.539-.825-1-1.689.879-.434,1.8-.8Q129.692,173.628,130.108,174.418Zm0,0" transform="translate(-108.469 -147.008)" fill="#fff" fill-rule="evenodd"/>
    <path id="Path_2173" data-name="Path 2173" d="M141.671,192.051q-.616.441-1.2.936-.523-.617-1-1.265.679-.487,1.393-.913Q141.242,191.444,141.671,192.051Zm0,0" transform="translate(-118.607 -162.323)" fill="#fff" fill-rule="evenodd"/>
    <path id="Path_2174" data-name="Path 2174" d="M153.84,207.287q-.452-.5-.869-1.021-.519.489-1.006,1,.5.524,1.03,1.02Q153.4,207.775,153.84,207.287Zm0,0" transform="translate(-129.24 -175.472)" fill="#fff" fill-rule="evenodd"/>
    <path id="Path_2175" data-name="Path 2175" d="M165.113,197.7q-.327-.5-.62-1.023-.48.377-.939.775.361.526.756,1.024Q164.7,198.08,165.113,197.7Zm0,0" transform="translate(-139.099 -167.317)" fill="#fff" fill-rule="evenodd"/>
    <path id="Path_2176" data-name="Path 2176" d="M150.362,168.105q-.7.243-1.381.537-.334-.757-.61-1.545.764-.249,1.547-.448Q150.112,167.39,150.362,168.105Zm0,0" transform="translate(-126.183 -141.771)" fill="#fff" fill-rule="evenodd"/>
    <path id="Path_2177" data-name="Path 2177" d="M276.187,269.766q-.106.627-.257,1.253.676.155,1.365.261.108-.688.163-1.38C277.031,269.869,276.606,269.825,276.187,269.766Zm0,0" transform="translate(-234.692 -229.488)" fill="#fff" fill-rule="evenodd"/>
    <path id="Path_2178" data-name="Path 2178" d="M289.945,236.881c.079.357.148.716.208,1.076q.586-.169,1.165-.378-.142-.577-.312-1.149Q290.481,236.675,289.945,236.881Zm0,0" transform="translate(-246.615 -201.131)" fill="#fff" fill-rule="evenodd"/>
    <path id="Path_2179" data-name="Path 2179" d="M278.914,241.466q.037.48.044.964.508-.091,1.012-.211c-.034-.344-.08-.687-.134-1.028Q279.378,241.344,278.914,241.466Zm0,0" transform="translate(-237.231 -205.181)" fill="#fff" fill-rule="evenodd"/>
    <path id="Path_2180" data-name="Path 2180" d="M292.383,252.583q.072.667.1,1.337.707-.089,1.4-.219-.094-.717-.231-1.431C293.236,252.388,292.812,252.491,292.383,252.583Zm0,0" transform="translate(-248.688 -214.605)" fill="#fff" fill-rule="evenodd"/>
    <path id="Path_2181" data-name="Path 2181" d="M278.512,255.639q-.031.595-.1,1.192.61-.022,1.215-.074.018-.637-.008-1.273Q279.067,255.577,278.512,255.639Zm0,0" transform="translate(-236.802 -217.34)" fill="#fff" fill-rule="evenodd"/>
    <path id="Path_2182" data-name="Path 2182" d="M289.836,289.352q-.129.883-.333,1.755.954.249,1.92.415.132-.97.185-1.956Q290.718,289.5,289.836,289.352Zm0,0" transform="translate(-246.239 -246.149)" fill="#fff" fill-rule="evenodd"/>
    <path id="Path_2183" data-name="Path 2183" d="M286.367,226.1q.2.44.365.894c.3-.171.594-.349.883-.538q-.221-.468-.47-.923C286.89,225.73,286.631,225.918,286.367,226.1Zm0,0" transform="translate(-243.571 -191.86)" fill="#fff" fill-rule="evenodd"/>
    <path id="Path_2184" data-name="Path 2184" d="M271.11,285.23q-.221.725-.5,1.44c.5.2,1.007.383,1.517.548q.246-.8.424-1.609Q271.822,285.445,271.11,285.23Zm0,0" transform="translate(-230.163 -242.644)" fill="#fff" fill-rule="evenodd"/>
    <path id="Path_2185" data-name="Path 2185" d="M239.712,273.078q.475.276.963.524-.34.508-.713,1c-.337-.206-.672-.421-1-.645Q239.354,273.526,239.712,273.078Zm0,0" transform="translate(-203.244 -232.306)" fill="#fff" fill-rule="evenodd"/>
    <path id="Path_2186" data-name="Path 2186" d="M247.658,263.648q.446.18.905.334c-.16.3-.329.606-.507.9q-.476-.206-.939-.439Q247.4,264.054,247.658,263.648Zm0,0" transform="translate(-210.182 -224.285)" fill="#fff" fill-rule="evenodd"/>
    <path id="Path_2187" data-name="Path 2187" d="M253.574,279.918q.614.27,1.244.5-.3.647-.634,1.272-.655-.306-1.294-.653Q253.25,280.49,253.574,279.918Zm0,0" transform="translate(-215.094 -238.125)" fill="#fff" fill-rule="evenodd"/>
    <path id="Path_2188" data-name="Path 2188" d="M260.8,267.895q.577.152,1.167.264-.2.575-.437,1.136-.613-.175-1.211-.392Q260.571,268.406,260.8,267.895Zm0,0" transform="translate(-221.41 -227.897)" fill="#fff" fill-rule="evenodd"/>
    <path id="Path_2189" data-name="Path 2189" d="M231.007,266.609q.361.319.741.618-.381.35-.78.679-.38-.354-.738-.728Q230.629,266.906,231.007,266.609Zm0,0" transform="translate(-195.818 -226.803)" fill="#fff" fill-rule="evenodd"/>
    <path id="Path_2190" data-name="Path 2190" d="M265.824,256.762q.48.023.965.015-.075.512-.18,1.019c-.345-.024-.689-.059-1.031-.1Q265.716,257.231,265.824,256.762Zm0,0" transform="translate(-225.886 -218.426)" fill="#fff" fill-rule="evenodd"/>
    <path id="Path_2191" data-name="Path 2191" d="M292.763,270.709q-.01.74-.072,1.479.824.079,1.659.088-.005-.8-.066-1.608C293.775,270.7,293.266,270.716,292.763,270.709Zm0,0" transform="translate(-248.951 -230.256)" fill="#fff" fill-rule="evenodd"/>
    <path id="Path_2192" data-name="Path 2192" d="M186.554,146.561q-.63-.089-1.272-.134.058-.691.165-1.381.688.107,1.365.261Q186.659,145.934,186.554,146.561Zm0,0" transform="translate(-157.581 -123.395)" fill="#fff" fill-rule="evenodd"/>
    <path id="Path_2193" data-name="Path 2193" d="M220.928,143.985q-.476-.276-.963-.524.34-.508.713-1,.506.309,1,.645Q221.287,143.536,220.928,143.985Zm0,0" transform="translate(-187.085 -121.199)" fill="#fff" fill-rule="evenodd"/>
    <path id="Path_2194" data-name="Path 2194" d="M214.51,155.036q-.445-.18-.9-.334.241-.458.506-.9.476.206.939.439Q214.768,154.63,214.51,155.036Zm0,0" transform="translate(-181.675 -130.842)" fill="#fff" fill-rule="evenodd"/>
    <path id="Path_2195" data-name="Path 2195" d="M205.849,135.706q-.613-.27-1.244-.5.3-.648.634-1.272.655.305,1.294.653Q206.173,135.135,205.849,135.706Zm0,0" transform="translate(-174.019 -113.942)" fill="#fff" fill-rule="evenodd"/>
    <path id="Path_2196" data-name="Path 2196" d="M200.217,149.849q-.577-.152-1.167-.264.2-.575.438-1.136.612.175,1.211.392C200.53,149.172,200.368,149.509,200.217,149.849Zm0,0" transform="translate(-169.294 -126.29)" fill="#fff" fill-rule="evenodd"/>
    <path id="Path_2197" data-name="Path 2197" d="M169.292,123.486c-.587-.1-1.179-.167-1.773-.214q.051-.984.185-1.955.965.167,1.92.415Q169.422,122.6,169.292,123.486Zm0,0" transform="translate(-142.472 -103.209)" fill="#fff" fill-rule="evenodd"/>
    <path id="Path_2198" data-name="Path 2198" d="M230.753,151.723q-.36-.319-.741-.618.379-.35.779-.678.38.353.738.727Q231.131,151.426,230.753,151.723Zm0,0" transform="translate(-195.632 -127.971)" fill="#fff" fill-rule="evenodd"/>
    <path id="Path_2199" data-name="Path 2199" d="M168.9,145.082q-.758-.008-1.525.046-.06-.808-.064-1.612.837.008,1.663.083Q168.915,144.339,168.9,145.082Zm0,0" transform="translate(-142.299 -122.093)" fill="#fff" fill-rule="evenodd"/>
    <path id="Path_2200" data-name="Path 2200" d="M172.642,180.139c-.079-.358-.148-.716-.208-1.076q-.587.169-1.165.378.142.577.312,1.149Q172.107,180.345,172.642,180.139Zm0,0" transform="translate(-145.662 -152.331)" fill="#fff" fill-rule="evenodd"/>
    <path id="Path_2201" data-name="Path 2201" d="M185.471,177.2q-.037-.48-.044-.964-.509.091-1.013.211.053.516.134,1.028C184.854,177.371,185.161,177.28,185.471,177.2Zm0,0" transform="translate(-156.843 -149.925)" fill="#fff" fill-rule="evenodd"/>
    <path id="Path_2202" data-name="Path 2202" d="M169.446,163.736q-.072-.667-.1-1.337-.708.089-1.4.219.094.717.231,1.431Q168.8,163.872,169.446,163.736Zm0,0" transform="translate(-142.831 -138.156)" fill="#fff" fill-rule="evenodd"/>
    <path id="Path_2203" data-name="Path 2203" d="M184.927,162.411q.029-.6.1-1.192-.61.022-1.215.073-.019.637.007,1.273Q184.37,162.473,184.927,162.411Zm0,0" transform="translate(-156.325 -137.152)" fill="#fff" fill-rule="evenodd"/>
    <path id="Path_2204" data-name="Path 2204" d="M176.931,191.3q-.2-.44-.365-.894-.449.256-.883.538.221.468.47.923C176.408,191.665,176.667,191.477,176.931,191.3Zm0,0" transform="translate(-149.417 -161.977)" fill="#fff" fill-rule="evenodd"/>
    <path id="Path_2205" data-name="Path 2205" d="M197.563,163.014q.125-.465.278-.925c-.34-.055-.681-.1-1.025-.136-.082.336-.152.674-.214,1.013Q197.084,162.975,197.563,163.014Zm0,0" transform="translate(-167.211 -137.777)" fill="#fff" fill-rule="evenodd"/>
    <path id="Path_2206" data-name="Path 2206" d="M189.217,128.721q-.71-.215-1.432-.379.175-.809.418-1.608.763.248,1.513.549Q189.436,128,189.217,128.721Zm0,0" transform="translate(-159.711 -107.818)" fill="#fff" fill-rule="evenodd"/>
    <g id="Group_2828" data-name="Group 2828" transform="translate(0.478 58.98)" clip-path="url(#clip-path)">
      <path id="Path_2207" data-name="Path 2207" d="M3.395,400.442v-4.948H4.05v2.454l2.457-2.454h.886l-2.075,2,2.167,2.944H6.621l-1.761-2.5-.81.79v1.715Zm89.355,0,1.9-4.948h.7l2.026,4.948h-.747l-.577-1.5H93.988l-.543,1.5Zm1.427-2.032h1.678l-.517-1.37q-.235-.624-.351-1.026a6.155,6.155,0,0,1-.267.946Zm-2.693-2.916h.655v4.948h-.655Zm-4.749,4.948v-4.948h1.857a2.311,2.311,0,0,1,.909.15,1.169,1.169,0,0,1,.537.463,1.219,1.219,0,0,1,.194.653,1.11,1.11,0,0,1-.173.6,1.223,1.223,0,0,1-.519.453,1.294,1.294,0,0,1,.69.449,1.2,1.2,0,0,1,.242.75,1.446,1.446,0,0,1-.148.646,1.254,1.254,0,0,1-.363.461,1.519,1.519,0,0,1-.541.244,3.3,3.3,0,0,1-.8.083Zm.656-2.868H88.46a2.42,2.42,0,0,0,.625-.058.691.691,0,0,0,.375-.247.713.713,0,0,0,.126-.432.8.8,0,0,0-.117-.433.6.6,0,0,0-.338-.257,2.817,2.817,0,0,0-.753-.069H87.39Zm0,2.284h1.231a2.929,2.929,0,0,0,.446-.023,1.069,1.069,0,0,0,.378-.136.719.719,0,0,0,.25-.274.867.867,0,0,0,.1-.417.826.826,0,0,0-.142-.481.75.75,0,0,0-.394-.287,2.47,2.47,0,0,0-.723-.082H87.39Zm-5.782.584,1.9-4.948h.7l2.025,4.948h-.747l-.577-1.5H82.847l-.543,1.5Zm1.428-2.032h1.678l-.517-1.37q-.235-.624-.351-1.026a6.292,6.292,0,0,1-.267.946Zm-5.865,2.032v-4.948h2.193a2.921,2.921,0,0,1,1.006.134,1.106,1.106,0,0,1,.551.47,1.411,1.411,0,0,1,.205.747,1.238,1.238,0,0,1-.341.887,1.725,1.725,0,0,1-1.053.46,1.653,1.653,0,0,1,.4.247,3.464,3.464,0,0,1,.544.657l.86,1.347h-.824l-.655-1.03c-.191-.3-.349-.524-.473-.681a1.463,1.463,0,0,0-.332-.33.993.993,0,0,0-.3-.133,2.1,2.1,0,0,0-.365-.023h-.759v2.2Zm.655-2.764h1.408a2.1,2.1,0,0,0,.7-.093.747.747,0,0,0,.384-.3.8.8,0,0,0,.132-.443.737.737,0,0,0-.255-.578,1.191,1.191,0,0,0-.805-.226H77.825Zm-5.819,2.764,1.9-4.948h.7l2.025,4.948H75.89l-.576-1.5H73.244l-.543,1.5Zm1.427-2.032h1.678l-.517-1.37q-.235-.624-.351-1.026a6.289,6.289,0,0,1-.267.946ZM69.2,395.494h.655v4.948H69.2Zm-5.1,4.948v-4.948h1.7a4.129,4.129,0,0,1,.881.072,1.667,1.667,0,0,1,.725.353,2.016,2.016,0,0,1,.586.845,3.317,3.317,0,0,1,.195,1.177,3.425,3.425,0,0,1-.132,1,2.429,2.429,0,0,1-.338.721,1.761,1.761,0,0,1-.45.448,1.82,1.82,0,0,1-.59.249,3.4,3.4,0,0,1-.8.084Zm.655-.584h1.056a2.571,2.571,0,0,0,.768-.091,1.1,1.1,0,0,0,.444-.257,1.545,1.545,0,0,0,.362-.625,3.05,3.05,0,0,0,.131-.954,2.3,2.3,0,0,0-.255-1.192,1.28,1.28,0,0,0-.62-.559,2.555,2.555,0,0,0-.847-.1h-1.04Zm-2.4-4.364h.655v2.86a3.368,3.368,0,0,1-.169,1.184,1.444,1.444,0,0,1-.609.713,2.15,2.15,0,0,1-1.156.275,2.363,2.363,0,0,1-1.136-.24,1.358,1.358,0,0,1-.632-.694,3.289,3.289,0,0,1-.188-1.239v-2.86h.654v2.856a2.759,2.759,0,0,0,.12.949.915.915,0,0,0,.411.471,1.432,1.432,0,0,0,.715.166,1.363,1.363,0,0,0,1.03-.328,1.889,1.889,0,0,0,.307-1.258Zm-8.4,4.948,1.9-4.948h.705l2.025,4.948h-.746l-.578-1.5H55.192l-.543,1.5Zm1.427-2.032h1.679l-.517-1.37q-.235-.624-.35-1.026a6.43,6.43,0,0,1-.267.946Zm-5.716.443.617-.054a1.336,1.336,0,0,0,.2.609,1.112,1.112,0,0,0,.5.385,1.878,1.878,0,0,0,.759.146,1.822,1.822,0,0,0,.662-.111.926.926,0,0,0,.427-.305.711.711,0,0,0,.141-.424.641.641,0,0,0-.136-.407.994.994,0,0,0-.445-.291,8.691,8.691,0,0,0-.881-.242,4.536,4.536,0,0,1-.955-.309,1.339,1.339,0,0,1-.529-.461,1.131,1.131,0,0,1-.173-.617,1.257,1.257,0,0,1,.212-.7,1.32,1.32,0,0,1,.621-.5,2.379,2.379,0,0,1,.908-.168,2.481,2.481,0,0,1,.971.177,1.4,1.4,0,0,1,.646.521,1.509,1.509,0,0,1,.243.78l-.628.047a1.014,1.014,0,0,0-.343-.709,1.332,1.332,0,0,0-.862-.24,1.384,1.384,0,0,0-.866.218.653.653,0,0,0-.272.524.562.562,0,0,0,.193.439,2.6,2.6,0,0,0,.987.352,6.6,6.6,0,0,1,1.1.316,1.514,1.514,0,0,1,.638.5,1.231,1.231,0,0,1,.2.7,1.344,1.344,0,0,1-.225.744,1.5,1.5,0,0,1-.649.544,2.272,2.272,0,0,1-.953.194,2.829,2.829,0,0,1-1.126-.2,1.575,1.575,0,0,1-.713-.589A1.661,1.661,0,0,1,49.664,398.852Zm-5.887,1.59v-4.948h3.338v.584H44.433v1.532h2.321v.584H44.433v2.248Zm-5.61-2.41a2.69,2.69,0,0,1,.661-1.929,2.253,2.253,0,0,1,1.709-.7,2.375,2.375,0,0,1,1.235.327,2.149,2.149,0,0,1,.838.914,2.958,2.958,0,0,1,.288,1.327,2.918,2.918,0,0,1-.3,1.346,2.079,2.079,0,0,1-.861.9,2.459,2.459,0,0,1-1.2.305,2.331,2.331,0,0,1-1.249-.338,2.166,2.166,0,0,1-.834-.921A2.789,2.789,0,0,1,38.168,398.032Zm.676.01a1.981,1.981,0,0,0,.48,1.409,1.679,1.679,0,0,0,2.423,0,2.1,2.1,0,0,0,.479-1.476,2.538,2.538,0,0,0-.205-1.054,1.582,1.582,0,0,0-.6-.7,1.627,1.627,0,0,0-.882-.247,1.671,1.671,0,0,0-1.2.478A2.132,2.132,0,0,0,38.843,398.042Zm-8.175,2.4v-4.948h.985l1.171,3.5c.109.326.188.571.236.733.057-.18.145-.445.265-.793l1.184-3.442h.881v4.948h-.631V396.3l-1.437,4.141H32.73L31.3,396.23v4.212Zm-5.555-2.41a2.685,2.685,0,0,1,.662-1.929,2.25,2.25,0,0,1,1.708-.7,2.375,2.375,0,0,1,1.235.327,2.147,2.147,0,0,1,.839.914,2.958,2.958,0,0,1,.288,1.327,2.9,2.9,0,0,1-.3,1.346,2.075,2.075,0,0,1-.86.9,2.461,2.461,0,0,1-1.2.305,2.331,2.331,0,0,1-1.249-.338,2.166,2.166,0,0,1-.834-.921A2.781,2.781,0,0,1,25.113,398.032Zm.676.01a1.981,1.981,0,0,0,.48,1.409,1.679,1.679,0,0,0,2.423,0,2.1,2.1,0,0,0,.478-1.476,2.538,2.538,0,0,0-.2-1.054,1.579,1.579,0,0,0-.6-.7,1.625,1.625,0,0,0-.882-.247,1.67,1.67,0,0,0-1.2.478A2.132,2.132,0,0,0,25.789,398.042Zm-5.468,2.4v-4.948h1.7a4.133,4.133,0,0,1,.881.072,1.676,1.676,0,0,1,.726.353,2.02,2.02,0,0,1,.585.845,3.3,3.3,0,0,1,.195,1.177,3.425,3.425,0,0,1-.132,1,2.414,2.414,0,0,1-.338.721,1.77,1.77,0,0,1-.45.448,1.831,1.831,0,0,1-.59.249,3.4,3.4,0,0,1-.8.084Zm.655-.584h1.056a2.573,2.573,0,0,0,.768-.091,1.1,1.1,0,0,0,.443-.257,1.545,1.545,0,0,0,.363-.625,3.068,3.068,0,0,0,.13-.954,2.307,2.307,0,0,0-.254-1.192,1.282,1.282,0,0,0-.62-.559,2.559,2.559,0,0,0-.848-.1h-1.04ZM17.26,398.5v-.579l2.1,0v1.835a3.7,3.7,0,0,1-1,.579,2.965,2.965,0,0,1-1.053.194,2.806,2.806,0,0,1-1.325-.312,2.065,2.065,0,0,1-.9-.9,2.834,2.834,0,0,1-.3-1.321,3.045,3.045,0,0,1,.3-1.348,2.006,2.006,0,0,1,.869-.931,2.736,2.736,0,0,1,1.306-.3,2.586,2.586,0,0,1,.97.174,1.6,1.6,0,0,1,.68.484,2.147,2.147,0,0,1,.376.81l-.591.162a1.852,1.852,0,0,0-.277-.594,1.135,1.135,0,0,0-.474-.345,1.731,1.731,0,0,0-.681-.13,2.009,2.009,0,0,0-.776.137,1.456,1.456,0,0,0-.529.359,1.733,1.733,0,0,0-.312.489,2.585,2.585,0,0,0-.189,1,2.418,2.418,0,0,0,.228,1.107,1.458,1.458,0,0,0,.664.662,2.05,2.05,0,0,0,.923.216,2.2,2.2,0,0,0,.831-.165,2.1,2.1,0,0,0,.614-.349V398.5Zm-7.314,1.941v-4.948h.672l2.6,3.885v-3.885h.628v4.948h-.671l-2.6-3.888v3.888Zm-1.8-4.948H8.8v4.948H8.144Zm0,0" transform="translate(-3.336 -395.346)" fill="#fff" fill-rule="evenodd"/>
    </g>
    <path id="Path_2209" data-name="Path 2209" d="M197.331,167.469a2.155,2.155,0,0,1,.32,1.077s.669-1.094,2.055-.182c0,0-1.18-.158-1.46.45,0,0,1.813-.474,2.2,1.2,0,0-.839-.936-1.605-.766a1.962,1.962,0,0,1,1.253,2.4s-.146-1.605-1.313-1.8a2.667,2.667,0,0,1,.669,2.676,2.631,2.631,0,0,0-.827-1.958,2.823,2.823,0,0,1-.353,2.615s.474-1.593-.292-2.177c0,0-.317-.194-.3.389,0,0-.09,3.343.075,4.973,0,0,3.347-2.832,6.211-.949,0,0-2.836-1.384-6.1,1.664l2.18,1.915a.547.547,0,0,1,1.011.289c0,.736-1.033.684-1.411.242l-2.29-2.1-.016-.05-.017.05-2.29,2.1c-.377.442-1.411.494-1.411-.242a.547.547,0,0,1,1.011-.289l2.18-1.915c-3.266-3.049-6.1-1.664-6.1-1.664,2.865-1.883,6.212.949,6.212.949.166-1.631.075-4.973.075-4.973.012-.583-.3-.389-.3-.389-.767.584-.292,2.177-.292,2.177a2.824,2.824,0,0,1-.352-2.615,2.63,2.63,0,0,0-.827,1.958,2.667,2.667,0,0,1,.669-2.676c-1.168.195-1.314,1.8-1.314,1.8a1.962,1.962,0,0,1,1.252-2.4c-.766-.17-1.605.766-1.605.766.389-1.678,2.2-1.2,2.2-1.2-.279-.608-1.46-.45-1.46-.45,1.387-.912,2.056.182,2.056.182A2.144,2.144,0,0,1,197.331,167.469Zm0,0" transform="translate(-162.193 -142.469)" fill="#fff" fill-rule="evenodd"/>
    <path id="Path_2210" data-name="Path 2210" d="M5.047,343.039h.637V342.4H5.047Zm-1.492-6.906H2.918v.637h.638Zm2.565,6.906h.636V342.4H6.12Zm-3.638-6.906H1.845v.637h.636Zm8.147,1.894a1.552,1.552,0,0,0-.553-.4,1.655,1.655,0,0,0-.737-.134h-.47v.6h.553a.911.911,0,0,1,.419.1,1.025,1.025,0,0,1,.335.251,1.16,1.16,0,0,1,.184.352,1.873,1.873,0,0,1,.051.47v1.793h-2.9v.62h3.519v-2.43a2.268,2.268,0,0,0-.1-.687A1.407,1.407,0,0,0,10.629,338.027Zm23.937,3.654h.62v-5.548h-.62Zm-2.414-.62H31.13a2.06,2.06,0,0,1-.855-.151,1.19,1.19,0,0,1-.486-.47,2.022,2.022,0,0,0,.066-.587v-1.978h-.62v2.079a1.222,1.222,0,0,1-.285.855,1.114,1.114,0,0,1-.872.319,1.22,1.22,0,0,1-.5-.083,1.442,1.442,0,0,1-.386-.218,1.338,1.338,0,0,1-.251-.352.91.91,0,0,1-.1-.419v-2.179h-.62v2.129a1.321,1.321,0,0,1-.084.486.748.748,0,0,1-.235.319.814.814,0,0,1-.335.184.973.973,0,0,1-.385.067H23.972v-3.185h-.621v3.185H20.117l1.073-2.581a6.386,6.386,0,0,0-.52-.419,4.9,4.9,0,0,0-.569-.318,2.985,2.985,0,0,0-.6-.234,2.149,2.149,0,0,0-1.191,0,4.338,4.338,0,0,0-.6.218,3.923,3.923,0,0,0-.57.335,4.488,4.488,0,0,0-.52.419l1.09,2.581H15.557v-3.57h-.989a3.392,3.392,0,0,0-1.04.151,2.658,2.658,0,0,0-.8.453,1.9,1.9,0,0,0-.537.671A1.972,1.972,0,0,0,12,339.6a1.8,1.8,0,0,0,.219.939,1.7,1.7,0,0,0,.553.636,2.462,2.462,0,0,0,.821.386,4.539,4.539,0,0,0,.972.117h.369v.168a.832.832,0,0,1-.268.7,1.336,1.336,0,0,1-.788.2,2.459,2.459,0,0,1-.519-.05,3.245,3.245,0,0,1-.52-.184l-.184.587a4.426,4.426,0,0,0,.62.2,2.086,2.086,0,0,0,.553.067,1.8,1.8,0,0,0,1.324-.436,1.605,1.605,0,0,0,.4-1.14v-.118h9.622a1.591,1.591,0,0,0,.8-.2,1.706,1.706,0,0,0,.57-.52,1.455,1.455,0,0,0,.6.587,1.977,1.977,0,0,0,.922.2,2.231,2.231,0,0,0,.939-.184,1.314,1.314,0,0,0,.6-.6,1.023,1.023,0,0,0,.2.268.985.985,0,0,0,.285.218,1.366,1.366,0,0,0,.418.168,1.892,1.892,0,0,0,.453.05v.016h1.793v-5.548h-.62Zm14.96,1.993h.637v-.637h-.637Zm6.051-1.978-.956-2.38a2.195,2.195,0,0,1,.721-.436,2.113,2.113,0,0,1,.788-.134,2.595,2.595,0,0,1,1.524.57l-.971,2.38Zm4.392,0H54.924l1.09-2.6c-.168-.134-.352-.268-.536-.4a6.548,6.548,0,0,0-.57-.335,4.125,4.125,0,0,0-.587-.218,2.224,2.224,0,0,0-1.207,0,4.288,4.288,0,0,0-.6.218,3.884,3.884,0,0,0-.57.335c-.184.134-.352.268-.52.4,1.089,2.557,1.106,2.6,1.106,2.6H50.214v-3.587h-.62v4.324a1.761,1.761,0,0,1-.034.453.633.633,0,0,1-.083.285.362.362,0,0,1-.184.168.674.674,0,0,1-.285.05.457.457,0,0,1-.151-.017.941.941,0,0,1-.168-.033l-.167.6a2.942,2.942,0,0,0,.5.067,1.15,1.15,0,0,0,.57-.117.919.919,0,0,0,.369-.3,1.738,1.738,0,0,0,.2-.5,3.732,3.732,0,0,0,.05-.654v-.134h7.962v-5.531h-.62ZM44.85,343.054h.636v-.637H44.85Zm-3.755-1.978h-.62a2.21,2.21,0,0,1-.653-.1,1.454,1.454,0,0,1-.52-.3,1.216,1.216,0,0,1-.369-.453,1.519,1.519,0,0,1-.134-.62,1.255,1.255,0,0,1,.151-.62,1.977,1.977,0,0,1,.369-.47,2.921,2.921,0,0,1,.553-.3,1.9,1.9,0,0,1,.6-.1h.62Zm6.655-3.587h-.62v3.587H44.8v-3.587h-.62v3.587H41.715v-3.587h-.972a3.491,3.491,0,0,0-1.056.167,2.307,2.307,0,0,0-.8.436,2,2,0,0,0-.52.671,1.978,1.978,0,0,0-.184.838,2.09,2.09,0,0,0,.218.939,2.056,2.056,0,0,0,.554.654,2.466,2.466,0,0,0,.821.369,3.593,3.593,0,0,0,.972.117H47.75Zm-3.973,5.565h.637v-.637h-.637Zm-2.062-6.906h-.637v.637h.637Zm-1.09,0h-.636v.637h.636Zm19.344,5.531h.621v-5.531H59.97Zm27.672-.54a1.593,1.593,0,0,1-.352.52,1.761,1.761,0,0,1-.5.335,1.68,1.68,0,0,1-.654.117,1.357,1.357,0,0,1-.637-.134,2.03,2.03,0,0,1-.5-.335,1.508,1.508,0,0,1-.318-.52,1.6,1.6,0,0,1-.134-.62,1.675,1.675,0,0,1,.134-.637,1.508,1.508,0,0,1,.318-.52,1.919,1.919,0,0,1,.5-.352,1.54,1.54,0,0,1,.637-.117,1.679,1.679,0,0,1,.654.117,1.849,1.849,0,0,1,.52.335,1.335,1.335,0,0,1,.335.52,1.686,1.686,0,0,1,.134.654A1.6,1.6,0,0,1,87.641,341.139Zm-6,0a1.584,1.584,0,0,1-.352.52,1.636,1.636,0,0,1-.52.335,1.54,1.54,0,0,1-.637.117,1.357,1.357,0,0,1-.637-.134,2.017,2.017,0,0,1-.5-.335,1.837,1.837,0,0,1-.335-.52,1.923,1.923,0,0,1-.118-.62,2.022,2.022,0,0,1,.118-.637,1.838,1.838,0,0,1,.335-.52,1.915,1.915,0,0,1,.5-.352,1.54,1.54,0,0,1,.637-.117,1.677,1.677,0,0,1,.654.117,1.849,1.849,0,0,1,.52.335,1.54,1.54,0,0,1,.335.52,1.686,1.686,0,0,1,.134.654A1.6,1.6,0,0,1,81.64,341.139Zm-15.053.285h-.6a2.053,2.053,0,0,1-.653-.1,1.537,1.537,0,0,1-.537-.3,1.186,1.186,0,0,1-.352-.453,1.289,1.289,0,0,1-.134-.62,1.465,1.465,0,0,1,.134-.621,1.687,1.687,0,0,1,.386-.469,2.329,2.329,0,0,1,.536-.3,1.925,1.925,0,0,1,.62-.1h.6Zm23.736,0H88.194a2.116,2.116,0,0,0,.2-.922,2.278,2.278,0,0,0-.184-.888,2.334,2.334,0,0,0-.469-.721,2.148,2.148,0,0,0-.722-.469,2.387,2.387,0,0,0-1.759,0,2.032,2.032,0,0,0-.687.486,1.923,1.923,0,0,0-.47.721,2.2,2.2,0,0,0-.184.872,2.072,2.072,0,0,0,.2.922H82.193a2.117,2.117,0,0,0,.2-.922,2.278,2.278,0,0,0-.184-.888,2.334,2.334,0,0,0-.469-.721,2.151,2.151,0,0,0-.721-.469,2.213,2.213,0,0,0-.888-.168,2.129,2.129,0,0,0-.872.168,2.3,2.3,0,0,0-.7.486,2.422,2.422,0,0,0-.469.721,2.5,2.5,0,0,0-.168.872,2.291,2.291,0,0,0,.05.486,4.392,4.392,0,0,0,.134.436H76.142V336.5h-.621v4.928H73.561v-.956a2.24,2.24,0,0,0-.1-.67,1.439,1.439,0,0,0-.285-.553,2.109,2.109,0,0,0-.554-.4,1.972,1.972,0,0,0-.754-.117H69.118l1.174-2.23h-.67l-1.19,2.213a1.853,1.853,0,0,0,.083.352,1.5,1.5,0,0,0,.185.268h3.168a1.223,1.223,0,0,1,.5.1.816.816,0,0,1,.335.235.723.723,0,0,1,.184.352,1.877,1.877,0,0,1,.05.452v.956H67.208v-3.587h-.972A3.5,3.5,0,0,0,65.18,338a2.471,2.471,0,0,0-.8.436,1.957,1.957,0,0,0-.5.67,1.756,1.756,0,0,0-.184.838,2.083,2.083,0,0,0,.2.939,2.589,2.589,0,0,0,.553.653,2.452,2.452,0,0,0,.821.369,3.7,3.7,0,0,0,.972.117H78.506a2.218,2.218,0,0,0,.72.52,2.356,2.356,0,0,0,1.827,0,1.916,1.916,0,0,0,.738-.52h2.732a2.146,2.146,0,0,0,.7.52,2.093,2.093,0,0,0,.905.184,2.115,2.115,0,0,0,.922-.184,1.916,1.916,0,0,0,.738-.52h3.151V336.5h-.62Zm2.43.6h.62V336.5h-.62ZM66.118,336.5h-.637v.637h.637Zm1.09,0h-.637v.637h.637Zm-60.568,1h-.62v3.57H3.555v-3.57H2.583a3.5,3.5,0,0,0-1.056.151,2.65,2.65,0,0,0-.8.436,2,2,0,0,0-.687,1.509,2.041,2.041,0,0,0,.2.939,1.95,1.95,0,0,0,.57.653,2.362,2.362,0,0,0,.8.369,3.8,3.8,0,0,0,.972.134H6.639Zm-3.7,3.57h-.6a2.055,2.055,0,0,1-.654-.1,1.813,1.813,0,0,1-.537-.285,1.394,1.394,0,0,1-.352-.469,1.26,1.26,0,0,1-.134-.62,1.452,1.452,0,0,1,.134-.6,1.526,1.526,0,0,1,.386-.469,1.54,1.54,0,0,1,.536-.3,1.955,1.955,0,0,1,.621-.117h.6Zm12,0h-.621a2.053,2.053,0,0,1-.653-.1,1.5,1.5,0,0,1-.536-.285,1.221,1.221,0,0,1-.369-.452,1.463,1.463,0,0,1-.134-.621,1.235,1.235,0,0,1,.151-.6,1.481,1.481,0,0,1,.369-.47,2.171,2.171,0,0,1,.537-.319,2.119,2.119,0,0,1,.636-.1h.621Zm3.42,0-.973-2.38a2.585,2.585,0,0,1,.738-.436,2.423,2.423,0,0,1,.788-.134,2.062,2.062,0,0,1,.821.167,2.477,2.477,0,0,1,.687.4l-.956,2.38Zm0,0" transform="translate(0 -285.944)" fill="#fff" fill-rule="evenodd"/>
    <path id="Path_2211" data-name="Path 2211" d="M371.371,14.426h1.07V15.5h-1.07Zm2.141,0h1.071V15.5h-1.071ZM352.383,2.244h-1.071V1.173h1.071ZM378.02,9.7a4.532,4.532,0,0,0,1.405.647,6.91,6.91,0,0,0,1.7.2h.268l.379-.758v1.049a1.422,1.422,0,0,1-.491,1.2,2.126,2.126,0,0,1-1.339.357,3.657,3.657,0,0,1-.893-.089,5.57,5.57,0,0,1-.915-.313l-.335,1.027a8.234,8.234,0,0,0,1.094.334,4.677,4.677,0,0,0,.959.112,3.03,3.03,0,0,0,2.276-.737,2.762,2.762,0,0,0,.692-1.985V3.315h-1.7a5.7,5.7,0,0,0-1.807.268,4.322,4.322,0,0,0-1.383.758,3.51,3.51,0,0,0-.915,1.16,3.554,3.554,0,0,0-.313,1.472,3.292,3.292,0,0,0,.357,1.607A3.087,3.087,0,0,0,378.02,9.7Zm0-3.771a2.372,2.372,0,0,1,.647-.825,3.071,3.071,0,0,1,1.985-.714h1.719l-.6.313V9.473h-1.093a3.552,3.552,0,0,1-1.115-.156,3.114,3.114,0,0,1-.937-.491A2.609,2.609,0,0,1,378,8.045a2.36,2.36,0,0,1-.223-1.071A2.082,2.082,0,0,1,378.02,5.925ZM354.5,2.244h-1.049V1.173H354.5Zm31.036,11.223a3.87,3.87,0,0,1-.87-.112l.268-1.026a1.855,1.855,0,0,1,.289.067h.268a1.074,1.074,0,0,0,.492-.089.529.529,0,0,0,.312-.268,1.391,1.391,0,0,0,.156-.513,3.872,3.872,0,0,0,.044-.758V3.315h1.071v7.452a5.638,5.638,0,0,1-.089,1.115,2.178,2.178,0,0,1-.357.87,1.634,1.634,0,0,1-.625.536A2.452,2.452,0,0,1,385.539,13.467ZM351.6,13.333h2.209v-.8a.494.494,0,0,1,.067.112,1.708,1.708,0,0,0,.648.535,2.364,2.364,0,0,0,.959.179h19.478V3.315h-1.071v8.969H355.53a1.694,1.694,0,0,1-.513-.067.729.729,0,0,1-.29-.29,1.365,1.365,0,0,1-.178-.513,6.6,6.6,0,0,1-.045-.758V3.315h-2.878a4.895,4.895,0,0,0-4.953,5v.022A4.862,4.862,0,0,0,351.6,13.333Zm-3.793-5.042A3.791,3.791,0,0,1,351.6,4.319h2.5l-.647.312v6.024a5.494,5.494,0,0,0,.089,1.115,3.029,3.029,0,0,0,.156.536h-2.075a3.842,3.842,0,0,1-3.816-3.994Zm33.815-8.3h.873V.773h-.8a.314.314,0,0,0-.313.313V1.4h1.371v.849h-2.261V1.118A1.133,1.133,0,0,1,381.625-.012Zm0,0" transform="translate(-294.869)" fill="#fff" fill-rule="evenodd"/>
    <path id="Path_2212" data-name="Path 2212" d="M47.834,20.757h1.093V30.74h-.891l-7.109-8.981.624,1.448V30.74H40.458V20.757H41.5l6.775,8.6-.446-1.226ZM6.227,30.83l-4.3-10.073H3.174L3.8,22.249,6.74,29.359l.289.691-.111-1.092,3.41-8.2h1.2L7.23,30.83ZM25.3,20.757H26.44V30.74H25.3Zm12.124,5.014a3.929,3.929,0,0,1-3.923,4.1,3.979,3.979,0,0,1-3.945-4.123v-.022a3.938,3.938,0,1,1,7.867.022ZM33.5,20.578a5.074,5.074,0,0,0-5.1,5.17v.022a5.01,5.01,0,0,0,5.082,5.148,5.065,5.065,0,0,0,5.125-5.17v-.022A5.028,5.028,0,0,0,33.5,20.578ZM23.454,28.044v.022c0,1.716-1.448,2.83-3.432,2.83a5.857,5.857,0,0,1-4.078-1.6l.691-.824a4.8,4.8,0,0,0,3.432,1.4c1.359,0,2.228-.713,2.228-1.694v-.022c0-.936-.49-1.471-2.607-1.894-2.3-.513-3.343-1.248-3.343-2.9v-.023c0-1.582,1.381-2.741,3.276-2.741a5.151,5.151,0,0,1,3.521,1.248l-.646.869a4.446,4.446,0,0,0-2.9-1.092c-1.293,0-2.139.713-2.139,1.6v.045c0,.936.512,1.471,2.718,1.939C22.407,25.7,23.454,26.506,23.454,28.044Zm-9.249,2.7H13.069V20.757h1.136Zm0,0" transform="translate(-1.608 -17.515)" fill="#fff" fill-rule="evenodd"/>
  </g>
</svg>
